<svg xmlns="http://www.w3.org/2000/svg" width="760" height="504" viewBox="0 0 760 504" font-family="Inter, Helvetica, Arial, sans-serif">
<rect width="760" height="504" fill="#fcfcfb"/>
<text x="20" y="26" font-size="16" font-weight="700" fill="#0b0b0b">ENCODE GM12878 ChIP-seq targets</text>
<text x="20" y="58" font-size="13" font-weight="600" fill="#0b0b0b">count</text>
<text x="242" y="87" font-size="11" text-anchor="end" fill="#52514e">CTCF</text>
<rect x="250" y="76" width="15" height="16" rx="3" fill="#2a78d6"/>
<text x="271" y="87" font-size="11" fill="#0b0b0b">7</text>
<text x="242" y="107" font-size="11" text-anchor="end" fill="#52514e">POLR2A</text>
<rect x="250" y="96" width="10" height="16" rx="3" fill="#2a78d6"/>
<text x="266" y="107" font-size="11" fill="#0b0b0b">5</text>
<text x="242" y="127" font-size="11" text-anchor="end" fill="#52514e">RAD21</text>
<rect x="250" y="116" width="10" height="16" rx="3" fill="#2a78d6"/>
<text x="266" y="127" font-size="11" fill="#0b0b0b">5</text>
<text x="242" y="147" font-size="11" text-anchor="end" fill="#52514e">EP300</text>
<rect x="250" y="136" width="8" height="16" rx="3" fill="#2a78d6"/>
<text x="264" y="147" font-size="11" fill="#0b0b0b">4</text>
<text x="242" y="167" font-size="11" text-anchor="end" fill="#52514e">BHLHE40</text>
<rect x="250" y="156" width="6" height="16" rx="3" fill="#2a78d6"/>
<text x="262" y="167" font-size="11" fill="#0b0b0b">3</text>
<text x="242" y="187" font-size="11" text-anchor="end" fill="#52514e">CHD1</text>
<rect x="250" y="176" width="6" height="16" rx="3" fill="#2a78d6"/>
<text x="262" y="187" font-size="11" fill="#0b0b0b">3</text>
<text x="242" y="207" font-size="11" text-anchor="end" fill="#52514e">ELAVL1</text>
<rect x="250" y="196" width="6" height="16" rx="3" fill="#2a78d6"/>
<text x="262" y="207" font-size="11" fill="#0b0b0b">3</text>
<text x="242" y="227" font-size="11" text-anchor="end" fill="#52514e">H3K4me3</text>
<rect x="250" y="216" width="6" height="16" rx="3" fill="#2a78d6"/>
<text x="262" y="227" font-size="11" fill="#0b0b0b">3</text>
<text x="242" y="247" font-size="11" text-anchor="end" fill="#52514e">IKZF1</text>
<rect x="250" y="236" width="6" height="16" rx="3" fill="#2a78d6"/>
<text x="262" y="247" font-size="11" fill="#0b0b0b">3</text>
<text x="242" y="267" font-size="11" text-anchor="end" fill="#52514e">PABPC1</text>
<rect x="250" y="256" width="6" height="16" rx="3" fill="#2a78d6"/>
<text x="262" y="267" font-size="11" fill="#0b0b0b">3</text>
<text x="242" y="287" font-size="11" text-anchor="end" fill="#52514e">SRF</text>
<rect x="250" y="276" width="6" height="16" rx="3" fill="#2a78d6"/>
<text x="262" y="287" font-size="11" fill="#0b0b0b">3</text>
<text x="242" y="307" font-size="11" text-anchor="end" fill="#52514e">SUZ12</text>
<rect x="250" y="296" width="6" height="16" rx="3" fill="#2a78d6"/>
<text x="262" y="307" font-size="11" fill="#0b0b0b">3</text>
<text x="242" y="327" font-size="11" text-anchor="end" fill="#52514e">T7</text>
<rect x="250" y="316" width="6" height="16" rx="3" fill="#2a78d6"/>
<text x="262" y="327" font-size="11" fill="#0b0b0b">3</text>
<text x="242" y="347" font-size="11" text-anchor="end" fill="#52514e">ARID3A</text>
<rect x="250" y="336" width="4" height="16" rx="3" fill="#2a78d6"/>
<text x="260" y="347" font-size="11" fill="#0b0b0b">2</text>
<text x="242" y="367" font-size="11" text-anchor="end" fill="#52514e">ATF2</text>
<rect x="250" y="356" width="4" height="16" rx="3" fill="#2a78d6"/>
<text x="260" y="367" font-size="11" fill="#0b0b0b">2</text>
<text x="242" y="387" font-size="11" text-anchor="end" fill="#52514e">BACH1</text>
<rect x="250" y="376" width="4" height="16" rx="3" fill="#2a78d6"/>
<text x="260" y="387" font-size="11" fill="#0b0b0b">2</text>
<text x="242" y="407" font-size="11" text-anchor="end" fill="#52514e">BCLAF1</text>
<rect x="250" y="396" width="4" height="16" rx="3" fill="#2a78d6"/>
<text x="260" y="407" font-size="11" fill="#0b0b0b">2</text>
<text x="242" y="427" font-size="11" text-anchor="end" fill="#52514e">CEBPB</text>
<rect x="250" y="416" width="4" height="16" rx="3" fill="#2a78d6"/>
<text x="260" y="427" font-size="11" fill="#0b0b0b">2</text>
<text x="242" y="447" font-size="11" text-anchor="end" fill="#52514e">CHD4</text>
<rect x="250" y="436" width="4" height="16" rx="3" fill="#2a78d6"/>
<text x="260" y="447" font-size="11" fill="#0b0b0b">2</text>
<text x="242" y="467" font-size="11" text-anchor="end" fill="#52514e">EBF1</text>
<rect x="250" y="456" width="4" height="16" rx="3" fill="#2a78d6"/>
<text x="260" y="467" font-size="11" fill="#0b0b0b">2</text>
<text x="242" y="487" font-size="11" text-anchor="end" fill="#52514e">Other (172 more)</text>
<rect x="250" y="476" width="420" height="16" rx="3" fill="#2a78d6"/>
<text x="676" y="487" font-size="11" fill="#0b0b0b">195</text>
<line x1="250" y1="72" x2="250" y2="494" stroke="#d0cfca" stroke-width="1"/>
</svg>