<?xml version="1.0" encoding="utf-8" standalone="no"?>
<!DOCTYPE svg PUBLIC "-//W3C//DTD SVG 1.1//EN"
  "http://www.w3.org/Graphics/SVG/1.1/DTD/svg11.dtd">
<svg xmlns:xlink="http://www.w3.org/1999/xlink" width="648pt" height="324pt" viewBox="0 0 648 324" xmlns="http://www.w3.org/2000/svg" version="1.1">
 <metadata>
  <rdf:RDF xmlns:dc="http://purl.org/dc/elements/1.1/" xmlns:cc="http://creativecommons.org/ns#" xmlns:rdf="http://www.w3.org/1999/02/22-rdf-syntax-ns#">
   <cc:Work>
    <dc:type rdf:resource="http://purl.org/dc/dcmitype/StillImage"/>
    <dc:date>2026-05-28T15:09:47.308964</dc:date>
    <dc:format>image/svg+xml</dc:format>
    <dc:creator>
     <cc:Agent>
      <dc:title>Matplotlib v3.9.4, https://matplotlib.org/</dc:title>
     </cc:Agent>
    </dc:creator>
   </cc:Work>
  </rdf:RDF>
 </metadata>
 <defs>
  <style type="text/css">*{stroke-linejoin: round; stroke-linecap: butt}</style>
 </defs>
 <g id="figure_1">
  <g id="patch_1">
   <path d="M 0 324 
L 648 324 
L 648 0 
L 0 0 
z
" style="fill: #ffffff"/>
  </g>
  <g id="axes_1">
   <g id="patch_2">
    <path d="M 126.34 282.04 
L 572.82 282.04 
L 572.82 37.968 
L 126.34 37.968 
z
" style="fill: #ffffff"/>
   </g>
   <g id="patch_3">
    <path d="M 126.34 64.10514 
L 498.406667 64.10514 
L 498.406667 49.062182 
L 126.34 49.062182 
z
" clip-path="url(#pd01b6a4c61)" style="fill: #c77f49; stroke: #ffffff; stroke-width: 0.5; stroke-linejoin: miter"/>
   </g>
   <g id="patch_4">
    <path d="M 126.34 82.908838 
L 145.010012 82.908838 
L 145.010012 67.86588 
L 126.34 67.86588 
z
" clip-path="url(#pd01b6a4c61)" style="fill: #5c8daa; stroke: #ffffff; stroke-width: 0.5; stroke-linejoin: miter"/>
   </g>
   <g id="patch_5">
    <path d="M 126.34 101.712536 
L 142.342867 101.712536 
L 142.342867 86.669578 
L 126.34 86.669578 
z
" clip-path="url(#pd01b6a4c61)" style="fill: #c77f49; stroke: #ffffff; stroke-width: 0.5; stroke-linejoin: miter"/>
   </g>
   <g id="patch_6">
    <path d="M 126.34 120.516234 
L 142.342867 120.516234 
L 142.342867 105.473276 
L 126.34 105.473276 
z
" clip-path="url(#pd01b6a4c61)" style="fill: #5c8daa; stroke: #ffffff; stroke-width: 0.5; stroke-linejoin: miter"/>
   </g>
   <g id="patch_7">
    <path d="M 126.34 139.319932 
L 142.342867 139.319932 
L 142.342867 124.276974 
L 126.34 124.276974 
z
" clip-path="url(#pd01b6a4c61)" style="fill: #5c8daa; stroke: #ffffff; stroke-width: 0.5; stroke-linejoin: miter"/>
   </g>
   <g id="patch_8">
    <path d="M 126.34 158.12363 
L 139.675723 158.12363 
L 139.675723 143.080672 
L 126.34 143.080672 
z
" clip-path="url(#pd01b6a4c61)" style="fill: #5c8daa; stroke: #ffffff; stroke-width: 0.5; stroke-linejoin: miter"/>
   </g>
   <g id="patch_9">
    <path d="M 126.34 176.927328 
L 135.675006 176.927328 
L 135.675006 161.88437 
L 126.34 161.88437 
z
" clip-path="url(#pd01b6a4c61)" style="fill: #5c8daa; stroke: #ffffff; stroke-width: 0.5; stroke-linejoin: miter"/>
   </g>
   <g id="patch_10">
    <path d="M 126.34 195.731026 
L 134.341434 195.731026 
L 134.341434 180.688068 
L 126.34 180.688068 
z
" clip-path="url(#pd01b6a4c61)" style="fill: #5c8daa; stroke: #ffffff; stroke-width: 0.5; stroke-linejoin: miter"/>
   </g>
   <g id="patch_11">
    <path d="M 126.34 214.534724 
L 133.007861 214.534724 
L 133.007861 199.491766 
L 126.34 199.491766 
z
" clip-path="url(#pd01b6a4c61)" style="fill: #5c8daa; stroke: #ffffff; stroke-width: 0.5; stroke-linejoin: miter"/>
   </g>
   <g id="patch_12">
    <path d="M 126.34 233.338422 
L 127.673572 233.338422 
L 127.673572 218.295464 
L 126.34 218.295464 
z
" clip-path="url(#pd01b6a4c61)" style="fill: #5c8daa; stroke: #ffffff; stroke-width: 0.5; stroke-linejoin: miter"/>
   </g>
   <g id="patch_13">
    <path d="M 126.34 252.14212 
L 127.673572 252.14212 
L 127.673572 237.099162 
L 126.34 237.099162 
z
" clip-path="url(#pd01b6a4c61)" style="fill: #5c8daa; stroke: #ffffff; stroke-width: 0.5; stroke-linejoin: miter"/>
   </g>
   <g id="patch_14">
    <path d="M 126.34 270.945818 
L 127.673572 270.945818 
L 127.673572 255.90286 
L 126.34 255.90286 
z
" clip-path="url(#pd01b6a4c61)" style="fill: #5c8daa; stroke: #ffffff; stroke-width: 0.5; stroke-linejoin: miter"/>
   </g>
   <g id="matplotlib.axis_1">
    <g id="xtick_1">
     <g id="line2d_1">
      <path d="M 126.34 282.04 
L 126.34 37.968 
" clip-path="url(#pd01b6a4c61)" style="fill: none; stroke-dasharray: 0.8,1.32; stroke-dashoffset: 0; stroke: #b0b0b0; stroke-opacity: 0.4; stroke-width: 0.8"/>
     </g>
     <g id="line2d_2">
      <defs>
       <path id="mea23c2233a" d="M 0 0 
L 0 3.5 
" style="stroke: #000000; stroke-width: 0.8"/>
      </defs>
      <g>
       <use xlink:href="#mea23c2233a" x="126.34" y="282.04" style="stroke: #000000; stroke-width: 0.8"/>
      </g>
     </g>
     <g id="text_1">
      <!-- 0 -->
      <g transform="translate(123.15875 296.638438) scale(0.1 -0.1)">
       <defs>
        <path id="DejaVuSans-30" d="M 2034 4250 
Q 1547 4250 1301 3770 
Q 1056 3291 1056 2328 
Q 1056 1369 1301 889 
Q 1547 409 2034 409 
Q 2525 409 2770 889 
Q 3016 1369 3016 2328 
Q 3016 3291 2770 3770 
Q 2525 4250 2034 4250 
z
M 2034 4750 
Q 2819 4750 3233 4129 
Q 3647 3509 3647 2328 
Q 3647 1150 3233 529 
Q 2819 -91 2034 -91 
Q 1250 -91 836 529 
Q 422 1150 422 2328 
Q 422 3509 836 4129 
Q 1250 4750 2034 4750 
z
" transform="scale(0.015625)"/>
       </defs>
       <use xlink:href="#DejaVuSans-30"/>
      </g>
     </g>
    </g>
    <g id="xtick_2">
     <g id="line2d_3">
      <path d="M 193.018614 282.04 
L 193.018614 37.968 
" clip-path="url(#pd01b6a4c61)" style="fill: none; stroke-dasharray: 0.8,1.32; stroke-dashoffset: 0; stroke: #b0b0b0; stroke-opacity: 0.4; stroke-width: 0.8"/>
     </g>
     <g id="line2d_4">
      <g>
       <use xlink:href="#mea23c2233a" x="193.018614" y="282.04" style="stroke: #000000; stroke-width: 0.8"/>
      </g>
     </g>
     <g id="text_2">
      <!-- 50 -->
      <g transform="translate(186.656114 296.638438) scale(0.1 -0.1)">
       <defs>
        <path id="DejaVuSans-35" d="M 691 4666 
L 3169 4666 
L 3169 4134 
L 1269 4134 
L 1269 2991 
Q 1406 3038 1543 3061 
Q 1681 3084 1819 3084 
Q 2600 3084 3056 2656 
Q 3513 2228 3513 1497 
Q 3513 744 3044 326 
Q 2575 -91 1722 -91 
Q 1428 -91 1123 -41 
Q 819 9 494 109 
L 494 744 
Q 775 591 1075 516 
Q 1375 441 1709 441 
Q 2250 441 2565 725 
Q 2881 1009 2881 1497 
Q 2881 1984 2565 2268 
Q 2250 2553 1709 2553 
Q 1456 2553 1204 2497 
Q 953 2441 691 2322 
L 691 4666 
z
" transform="scale(0.015625)"/>
       </defs>
       <use xlink:href="#DejaVuSans-35"/>
       <use xlink:href="#DejaVuSans-30" x="63.623047"/>
      </g>
     </g>
    </g>
    <g id="xtick_3">
     <g id="line2d_5">
      <path d="M 259.697228 282.04 
L 259.697228 37.968 
" clip-path="url(#pd01b6a4c61)" style="fill: none; stroke-dasharray: 0.8,1.32; stroke-dashoffset: 0; stroke: #b0b0b0; stroke-opacity: 0.4; stroke-width: 0.8"/>
     </g>
     <g id="line2d_6">
      <g>
       <use xlink:href="#mea23c2233a" x="259.697228" y="282.04" style="stroke: #000000; stroke-width: 0.8"/>
      </g>
     </g>
     <g id="text_3">
      <!-- 100 -->
      <g transform="translate(250.153478 296.638438) scale(0.1 -0.1)">
       <defs>
        <path id="DejaVuSans-31" d="M 794 531 
L 1825 531 
L 1825 4091 
L 703 3866 
L 703 4441 
L 1819 4666 
L 2450 4666 
L 2450 531 
L 3481 531 
L 3481 0 
L 794 0 
L 794 531 
z
" transform="scale(0.015625)"/>
       </defs>
       <use xlink:href="#DejaVuSans-31"/>
       <use xlink:href="#DejaVuSans-30" x="63.623047"/>
       <use xlink:href="#DejaVuSans-30" x="127.246094"/>
      </g>
     </g>
    </g>
    <g id="xtick_4">
     <g id="line2d_7">
      <path d="M 326.375842 282.04 
L 326.375842 37.968 
" clip-path="url(#pd01b6a4c61)" style="fill: none; stroke-dasharray: 0.8,1.32; stroke-dashoffset: 0; stroke: #b0b0b0; stroke-opacity: 0.4; stroke-width: 0.8"/>
     </g>
     <g id="line2d_8">
      <g>
       <use xlink:href="#mea23c2233a" x="326.375842" y="282.04" style="stroke: #000000; stroke-width: 0.8"/>
      </g>
     </g>
     <g id="text_4">
      <!-- 150 -->
      <g transform="translate(316.832092 296.638438) scale(0.1 -0.1)">
       <use xlink:href="#DejaVuSans-31"/>
       <use xlink:href="#DejaVuSans-35" x="63.623047"/>
       <use xlink:href="#DejaVuSans-30" x="127.246094"/>
      </g>
     </g>
    </g>
    <g id="xtick_5">
     <g id="line2d_9">
      <path d="M 393.054456 282.04 
L 393.054456 37.968 
" clip-path="url(#pd01b6a4c61)" style="fill: none; stroke-dasharray: 0.8,1.32; stroke-dashoffset: 0; stroke: #b0b0b0; stroke-opacity: 0.4; stroke-width: 0.8"/>
     </g>
     <g id="line2d_10">
      <g>
       <use xlink:href="#mea23c2233a" x="393.054456" y="282.04" style="stroke: #000000; stroke-width: 0.8"/>
      </g>
     </g>
     <g id="text_5">
      <!-- 200 -->
      <g transform="translate(383.510706 296.638438) scale(0.1 -0.1)">
       <defs>
        <path id="DejaVuSans-32" d="M 1228 531 
L 3431 531 
L 3431 0 
L 469 0 
L 469 531 
Q 828 903 1448 1529 
Q 2069 2156 2228 2338 
Q 2531 2678 2651 2914 
Q 2772 3150 2772 3378 
Q 2772 3750 2511 3984 
Q 2250 4219 1831 4219 
Q 1534 4219 1204 4116 
Q 875 4013 500 3803 
L 500 4441 
Q 881 4594 1212 4672 
Q 1544 4750 1819 4750 
Q 2544 4750 2975 4387 
Q 3406 4025 3406 3419 
Q 3406 3131 3298 2873 
Q 3191 2616 2906 2266 
Q 2828 2175 2409 1742 
Q 1991 1309 1228 531 
z
" transform="scale(0.015625)"/>
       </defs>
       <use xlink:href="#DejaVuSans-32"/>
       <use xlink:href="#DejaVuSans-30" x="63.623047"/>
       <use xlink:href="#DejaVuSans-30" x="127.246094"/>
      </g>
     </g>
    </g>
    <g id="xtick_6">
     <g id="line2d_11">
      <path d="M 459.73307 282.04 
L 459.73307 37.968 
" clip-path="url(#pd01b6a4c61)" style="fill: none; stroke-dasharray: 0.8,1.32; stroke-dashoffset: 0; stroke: #b0b0b0; stroke-opacity: 0.4; stroke-width: 0.8"/>
     </g>
     <g id="line2d_12">
      <g>
       <use xlink:href="#mea23c2233a" x="459.73307" y="282.04" style="stroke: #000000; stroke-width: 0.8"/>
      </g>
     </g>
     <g id="text_6">
      <!-- 250 -->
      <g transform="translate(450.18932 296.638438) scale(0.1 -0.1)">
       <use xlink:href="#DejaVuSans-32"/>
       <use xlink:href="#DejaVuSans-35" x="63.623047"/>
       <use xlink:href="#DejaVuSans-30" x="127.246094"/>
      </g>
     </g>
    </g>
    <g id="xtick_7">
     <g id="line2d_13">
      <path d="M 526.411685 282.04 
L 526.411685 37.968 
" clip-path="url(#pd01b6a4c61)" style="fill: none; stroke-dasharray: 0.8,1.32; stroke-dashoffset: 0; stroke: #b0b0b0; stroke-opacity: 0.4; stroke-width: 0.8"/>
     </g>
     <g id="line2d_14">
      <g>
       <use xlink:href="#mea23c2233a" x="526.411685" y="282.04" style="stroke: #000000; stroke-width: 0.8"/>
      </g>
     </g>
     <g id="text_7">
      <!-- 300 -->
      <g transform="translate(516.867935 296.638438) scale(0.1 -0.1)">
       <defs>
        <path id="DejaVuSans-33" d="M 2597 2516 
Q 3050 2419 3304 2112 
Q 3559 1806 3559 1356 
Q 3559 666 3084 287 
Q 2609 -91 1734 -91 
Q 1441 -91 1130 -33 
Q 819 25 488 141 
L 488 750 
Q 750 597 1062 519 
Q 1375 441 1716 441 
Q 2309 441 2620 675 
Q 2931 909 2931 1356 
Q 2931 1769 2642 2001 
Q 2353 2234 1838 2234 
L 1294 2234 
L 1294 2753 
L 1863 2753 
Q 2328 2753 2575 2939 
Q 2822 3125 2822 3475 
Q 2822 3834 2567 4026 
Q 2313 4219 1838 4219 
Q 1578 4219 1281 4162 
Q 984 4106 628 3988 
L 628 4550 
Q 988 4650 1302 4700 
Q 1616 4750 1894 4750 
Q 2613 4750 3031 4423 
Q 3450 4097 3450 3541 
Q 3450 3153 3228 2886 
Q 3006 2619 2597 2516 
z
" transform="scale(0.015625)"/>
       </defs>
       <use xlink:href="#DejaVuSans-33"/>
       <use xlink:href="#DejaVuSans-30" x="63.623047"/>
       <use xlink:href="#DejaVuSans-30" x="127.246094"/>
      </g>
     </g>
    </g>
    <g id="text_8">
     <!-- ENCODE CRISPR-screen FCEs -->
     <g transform="translate(276.607344 310.316563) scale(0.1 -0.1)">
      <defs>
       <path id="DejaVuSans-45" d="M 628 4666 
L 3578 4666 
L 3578 4134 
L 1259 4134 
L 1259 2753 
L 3481 2753 
L 3481 2222 
L 1259 2222 
L 1259 531 
L 3634 531 
L 3634 0 
L 628 0 
L 628 4666 
z
" transform="scale(0.015625)"/>
       <path id="DejaVuSans-4e" d="M 628 4666 
L 1478 4666 
L 3547 763 
L 3547 4666 
L 4159 4666 
L 4159 0 
L 3309 0 
L 1241 3903 
L 1241 0 
L 628 0 
L 628 4666 
z
" transform="scale(0.015625)"/>
       <path id="DejaVuSans-43" d="M 4122 4306 
L 4122 3641 
Q 3803 3938 3442 4084 
Q 3081 4231 2675 4231 
Q 1875 4231 1450 3742 
Q 1025 3253 1025 2328 
Q 1025 1406 1450 917 
Q 1875 428 2675 428 
Q 3081 428 3442 575 
Q 3803 722 4122 1019 
L 4122 359 
Q 3791 134 3420 21 
Q 3050 -91 2638 -91 
Q 1578 -91 968 557 
Q 359 1206 359 2328 
Q 359 3453 968 4101 
Q 1578 4750 2638 4750 
Q 3056 4750 3426 4639 
Q 3797 4528 4122 4306 
z
" transform="scale(0.015625)"/>
       <path id="DejaVuSans-4f" d="M 2522 4238 
Q 1834 4238 1429 3725 
Q 1025 3213 1025 2328 
Q 1025 1447 1429 934 
Q 1834 422 2522 422 
Q 3209 422 3611 934 
Q 4013 1447 4013 2328 
Q 4013 3213 3611 3725 
Q 3209 4238 2522 4238 
z
M 2522 4750 
Q 3503 4750 4090 4092 
Q 4678 3434 4678 2328 
Q 4678 1225 4090 567 
Q 3503 -91 2522 -91 
Q 1538 -91 948 565 
Q 359 1222 359 2328 
Q 359 3434 948 4092 
Q 1538 4750 2522 4750 
z
" transform="scale(0.015625)"/>
       <path id="DejaVuSans-44" d="M 1259 4147 
L 1259 519 
L 2022 519 
Q 2988 519 3436 956 
Q 3884 1394 3884 2338 
Q 3884 3275 3436 3711 
Q 2988 4147 2022 4147 
L 1259 4147 
z
M 628 4666 
L 1925 4666 
Q 3281 4666 3915 4102 
Q 4550 3538 4550 2338 
Q 4550 1131 3912 565 
Q 3275 0 1925 0 
L 628 0 
L 628 4666 
z
" transform="scale(0.015625)"/>
       <path id="DejaVuSans-20" transform="scale(0.015625)"/>
       <path id="DejaVuSans-52" d="M 2841 2188 
Q 3044 2119 3236 1894 
Q 3428 1669 3622 1275 
L 4263 0 
L 3584 0 
L 2988 1197 
Q 2756 1666 2539 1819 
Q 2322 1972 1947 1972 
L 1259 1972 
L 1259 0 
L 628 0 
L 628 4666 
L 2053 4666 
Q 2853 4666 3247 4331 
Q 3641 3997 3641 3322 
Q 3641 2881 3436 2590 
Q 3231 2300 2841 2188 
z
M 1259 4147 
L 1259 2491 
L 2053 2491 
Q 2509 2491 2742 2702 
Q 2975 2913 2975 3322 
Q 2975 3731 2742 3939 
Q 2509 4147 2053 4147 
L 1259 4147 
z
" transform="scale(0.015625)"/>
       <path id="DejaVuSans-49" d="M 628 4666 
L 1259 4666 
L 1259 0 
L 628 0 
L 628 4666 
z
" transform="scale(0.015625)"/>
       <path id="DejaVuSans-53" d="M 3425 4513 
L 3425 3897 
Q 3066 4069 2747 4153 
Q 2428 4238 2131 4238 
Q 1616 4238 1336 4038 
Q 1056 3838 1056 3469 
Q 1056 3159 1242 3001 
Q 1428 2844 1947 2747 
L 2328 2669 
Q 3034 2534 3370 2195 
Q 3706 1856 3706 1288 
Q 3706 609 3251 259 
Q 2797 -91 1919 -91 
Q 1588 -91 1214 -16 
Q 841 59 441 206 
L 441 856 
Q 825 641 1194 531 
Q 1563 422 1919 422 
Q 2459 422 2753 634 
Q 3047 847 3047 1241 
Q 3047 1584 2836 1778 
Q 2625 1972 2144 2069 
L 1759 2144 
Q 1053 2284 737 2584 
Q 422 2884 422 3419 
Q 422 4038 858 4394 
Q 1294 4750 2059 4750 
Q 2388 4750 2728 4690 
Q 3069 4631 3425 4513 
z
" transform="scale(0.015625)"/>
       <path id="DejaVuSans-50" d="M 1259 4147 
L 1259 2394 
L 2053 2394 
Q 2494 2394 2734 2622 
Q 2975 2850 2975 3272 
Q 2975 3691 2734 3919 
Q 2494 4147 2053 4147 
L 1259 4147 
z
M 628 4666 
L 2053 4666 
Q 2838 4666 3239 4311 
Q 3641 3956 3641 3272 
Q 3641 2581 3239 2228 
Q 2838 1875 2053 1875 
L 1259 1875 
L 1259 0 
L 628 0 
L 628 4666 
z
" transform="scale(0.015625)"/>
       <path id="DejaVuSans-2d" d="M 313 2009 
L 1997 2009 
L 1997 1497 
L 313 1497 
L 313 2009 
z
" transform="scale(0.015625)"/>
       <path id="DejaVuSans-73" d="M 2834 3397 
L 2834 2853 
Q 2591 2978 2328 3040 
Q 2066 3103 1784 3103 
Q 1356 3103 1142 2972 
Q 928 2841 928 2578 
Q 928 2378 1081 2264 
Q 1234 2150 1697 2047 
L 1894 2003 
Q 2506 1872 2764 1633 
Q 3022 1394 3022 966 
Q 3022 478 2636 193 
Q 2250 -91 1575 -91 
Q 1294 -91 989 -36 
Q 684 19 347 128 
L 347 722 
Q 666 556 975 473 
Q 1284 391 1588 391 
Q 1994 391 2212 530 
Q 2431 669 2431 922 
Q 2431 1156 2273 1281 
Q 2116 1406 1581 1522 
L 1381 1569 
Q 847 1681 609 1914 
Q 372 2147 372 2553 
Q 372 3047 722 3315 
Q 1072 3584 1716 3584 
Q 2034 3584 2315 3537 
Q 2597 3491 2834 3397 
z
" transform="scale(0.015625)"/>
       <path id="DejaVuSans-63" d="M 3122 3366 
L 3122 2828 
Q 2878 2963 2633 3030 
Q 2388 3097 2138 3097 
Q 1578 3097 1268 2742 
Q 959 2388 959 1747 
Q 959 1106 1268 751 
Q 1578 397 2138 397 
Q 2388 397 2633 464 
Q 2878 531 3122 666 
L 3122 134 
Q 2881 22 2623 -34 
Q 2366 -91 2075 -91 
Q 1284 -91 818 406 
Q 353 903 353 1747 
Q 353 2603 823 3093 
Q 1294 3584 2113 3584 
Q 2378 3584 2631 3529 
Q 2884 3475 3122 3366 
z
" transform="scale(0.015625)"/>
       <path id="DejaVuSans-72" d="M 2631 2963 
Q 2534 3019 2420 3045 
Q 2306 3072 2169 3072 
Q 1681 3072 1420 2755 
Q 1159 2438 1159 1844 
L 1159 0 
L 581 0 
L 581 3500 
L 1159 3500 
L 1159 2956 
Q 1341 3275 1631 3429 
Q 1922 3584 2338 3584 
Q 2397 3584 2469 3576 
Q 2541 3569 2628 3553 
L 2631 2963 
z
" transform="scale(0.015625)"/>
       <path id="DejaVuSans-65" d="M 3597 1894 
L 3597 1613 
L 953 1613 
Q 991 1019 1311 708 
Q 1631 397 2203 397 
Q 2534 397 2845 478 
Q 3156 559 3463 722 
L 3463 178 
Q 3153 47 2828 -22 
Q 2503 -91 2169 -91 
Q 1331 -91 842 396 
Q 353 884 353 1716 
Q 353 2575 817 3079 
Q 1281 3584 2069 3584 
Q 2775 3584 3186 3129 
Q 3597 2675 3597 1894 
z
M 3022 2063 
Q 3016 2534 2758 2815 
Q 2500 3097 2075 3097 
Q 1594 3097 1305 2825 
Q 1016 2553 972 2059 
L 3022 2063 
z
" transform="scale(0.015625)"/>
       <path id="DejaVuSans-6e" d="M 3513 2113 
L 3513 0 
L 2938 0 
L 2938 2094 
Q 2938 2591 2744 2837 
Q 2550 3084 2163 3084 
Q 1697 3084 1428 2787 
Q 1159 2491 1159 1978 
L 1159 0 
L 581 0 
L 581 3500 
L 1159 3500 
L 1159 2956 
Q 1366 3272 1645 3428 
Q 1925 3584 2291 3584 
Q 2894 3584 3203 3211 
Q 3513 2838 3513 2113 
z
" transform="scale(0.015625)"/>
       <path id="DejaVuSans-46" d="M 628 4666 
L 3309 4666 
L 3309 4134 
L 1259 4134 
L 1259 2759 
L 3109 2759 
L 3109 2228 
L 1259 2228 
L 1259 0 
L 628 0 
L 628 4666 
z
" transform="scale(0.015625)"/>
      </defs>
      <use xlink:href="#DejaVuSans-45"/>
      <use xlink:href="#DejaVuSans-4e" x="63.183594"/>
      <use xlink:href="#DejaVuSans-43" x="137.988281"/>
      <use xlink:href="#DejaVuSans-4f" x="207.8125"/>
      <use xlink:href="#DejaVuSans-44" x="286.523438"/>
      <use xlink:href="#DejaVuSans-45" x="363.525391"/>
      <use xlink:href="#DejaVuSans-20" x="426.708984"/>
      <use xlink:href="#DejaVuSans-43" x="458.496094"/>
      <use xlink:href="#DejaVuSans-52" x="528.320312"/>
      <use xlink:href="#DejaVuSans-49" x="597.802734"/>
      <use xlink:href="#DejaVuSans-53" x="627.294922"/>
      <use xlink:href="#DejaVuSans-50" x="690.771484"/>
      <use xlink:href="#DejaVuSans-52" x="751.074219"/>
      <use xlink:href="#DejaVuSans-2d" x="816.556641"/>
      <use xlink:href="#DejaVuSans-73" x="852.640625"/>
      <use xlink:href="#DejaVuSans-63" x="904.740234"/>
      <use xlink:href="#DejaVuSans-72" x="959.720703"/>
      <use xlink:href="#DejaVuSans-65" x="998.583984"/>
      <use xlink:href="#DejaVuSans-65" x="1060.107422"/>
      <use xlink:href="#DejaVuSans-6e" x="1121.630859"/>
      <use xlink:href="#DejaVuSans-20" x="1185.009766"/>
      <use xlink:href="#DejaVuSans-46" x="1216.796875"/>
      <use xlink:href="#DejaVuSans-43" x="1274.316406"/>
      <use xlink:href="#DejaVuSans-45" x="1344.140625"/>
      <use xlink:href="#DejaVuSans-73" x="1407.324219"/>
     </g>
    </g>
   </g>
   <g id="matplotlib.axis_2">
    <g id="ytick_1">
     <g id="line2d_15">
      <defs>
       <path id="m59601a69ff" d="M 0 0 
L -3.5 0 
" style="stroke: #000000; stroke-width: 0.8"/>
      </defs>
      <g>
       <use xlink:href="#m59601a69ff" x="126.34" y="56.583661" style="stroke: #000000; stroke-width: 0.8"/>
      </g>
     </g>
     <g id="text_9">
      <!-- K562 -->
      <g transform="translate(93.694688 60.38288) scale(0.1 -0.1)">
       <defs>
        <path id="DejaVuSans-4b" d="M 628 4666 
L 1259 4666 
L 1259 2694 
L 3353 4666 
L 4166 4666 
L 1850 2491 
L 4331 0 
L 3500 0 
L 1259 2247 
L 1259 0 
L 628 0 
L 628 4666 
z
" transform="scale(0.015625)"/>
        <path id="DejaVuSans-36" d="M 2113 2584 
Q 1688 2584 1439 2293 
Q 1191 2003 1191 1497 
Q 1191 994 1439 701 
Q 1688 409 2113 409 
Q 2538 409 2786 701 
Q 3034 994 3034 1497 
Q 3034 2003 2786 2293 
Q 2538 2584 2113 2584 
z
M 3366 4563 
L 3366 3988 
Q 3128 4100 2886 4159 
Q 2644 4219 2406 4219 
Q 1781 4219 1451 3797 
Q 1122 3375 1075 2522 
Q 1259 2794 1537 2939 
Q 1816 3084 2150 3084 
Q 2853 3084 3261 2657 
Q 3669 2231 3669 1497 
Q 3669 778 3244 343 
Q 2819 -91 2113 -91 
Q 1303 -91 875 529 
Q 447 1150 447 2328 
Q 447 3434 972 4092 
Q 1497 4750 2381 4750 
Q 2619 4750 2861 4703 
Q 3103 4656 3366 4563 
z
" transform="scale(0.015625)"/>
       </defs>
       <use xlink:href="#DejaVuSans-4b"/>
       <use xlink:href="#DejaVuSans-35" x="65.576172"/>
       <use xlink:href="#DejaVuSans-36" x="129.199219"/>
       <use xlink:href="#DejaVuSans-32" x="192.822266"/>
      </g>
     </g>
    </g>
    <g id="ytick_2">
     <g id="line2d_16">
      <g>
       <use xlink:href="#m59601a69ff" x="126.34" y="75.387359" style="stroke: #000000; stroke-width: 0.8"/>
      </g>
     </g>
     <g id="text_10">
      <!-- WTC11 -->
      <g transform="translate(84.224375 79.186578) scale(0.1 -0.1)">
       <defs>
        <path id="DejaVuSans-57" d="M 213 4666 
L 850 4666 
L 1831 722 
L 2809 4666 
L 3519 4666 
L 4500 722 
L 5478 4666 
L 6119 4666 
L 4947 0 
L 4153 0 
L 3169 4050 
L 2175 0 
L 1381 0 
L 213 4666 
z
" transform="scale(0.015625)"/>
        <path id="DejaVuSans-54" d="M -19 4666 
L 3928 4666 
L 3928 4134 
L 2272 4134 
L 2272 0 
L 1638 0 
L 1638 4134 
L -19 4134 
L -19 4666 
z
" transform="scale(0.015625)"/>
       </defs>
       <use xlink:href="#DejaVuSans-57"/>
       <use xlink:href="#DejaVuSans-54" x="98.876953"/>
       <use xlink:href="#DejaVuSans-43" x="154.085938"/>
       <use xlink:href="#DejaVuSans-31" x="223.910156"/>
       <use xlink:href="#DejaVuSans-31" x="287.533203"/>
      </g>
     </g>
    </g>
    <g id="ytick_3">
     <g id="line2d_17">
      <g>
       <use xlink:href="#m59601a69ff" x="126.34" y="94.191057" style="stroke: #000000; stroke-width: 0.8"/>
      </g>
     </g>
     <g id="text_11">
      <!-- Jurkat -->
      <g transform="translate(90.2775 97.990276) scale(0.1 -0.1)">
       <defs>
        <path id="DejaVuSans-4a" d="M 628 4666 
L 1259 4666 
L 1259 325 
Q 1259 -519 939 -900 
Q 619 -1281 -91 -1281 
L -331 -1281 
L -331 -750 
L -134 -750 
Q 284 -750 456 -515 
Q 628 -281 628 325 
L 628 4666 
z
" transform="scale(0.015625)"/>
        <path id="DejaVuSans-75" d="M 544 1381 
L 544 3500 
L 1119 3500 
L 1119 1403 
Q 1119 906 1312 657 
Q 1506 409 1894 409 
Q 2359 409 2629 706 
Q 2900 1003 2900 1516 
L 2900 3500 
L 3475 3500 
L 3475 0 
L 2900 0 
L 2900 538 
Q 2691 219 2414 64 
Q 2138 -91 1772 -91 
Q 1169 -91 856 284 
Q 544 659 544 1381 
z
M 1991 3584 
L 1991 3584 
z
" transform="scale(0.015625)"/>
        <path id="DejaVuSans-6b" d="M 581 4863 
L 1159 4863 
L 1159 1991 
L 2875 3500 
L 3609 3500 
L 1753 1863 
L 3688 0 
L 2938 0 
L 1159 1709 
L 1159 0 
L 581 0 
L 581 4863 
z
" transform="scale(0.015625)"/>
        <path id="DejaVuSans-61" d="M 2194 1759 
Q 1497 1759 1228 1600 
Q 959 1441 959 1056 
Q 959 750 1161 570 
Q 1363 391 1709 391 
Q 2188 391 2477 730 
Q 2766 1069 2766 1631 
L 2766 1759 
L 2194 1759 
z
M 3341 1997 
L 3341 0 
L 2766 0 
L 2766 531 
Q 2569 213 2275 61 
Q 1981 -91 1556 -91 
Q 1019 -91 701 211 
Q 384 513 384 1019 
Q 384 1609 779 1909 
Q 1175 2209 1959 2209 
L 2766 2209 
L 2766 2266 
Q 2766 2663 2505 2880 
Q 2244 3097 1772 3097 
Q 1472 3097 1187 3025 
Q 903 2953 641 2809 
L 641 3341 
Q 956 3463 1253 3523 
Q 1550 3584 1831 3584 
Q 2591 3584 2966 3190 
Q 3341 2797 3341 1997 
z
" transform="scale(0.015625)"/>
        <path id="DejaVuSans-74" d="M 1172 4494 
L 1172 3500 
L 2356 3500 
L 2356 3053 
L 1172 3053 
L 1172 1153 
Q 1172 725 1289 603 
Q 1406 481 1766 481 
L 2356 481 
L 2356 0 
L 1766 0 
Q 1100 0 847 248 
Q 594 497 594 1153 
L 594 3053 
L 172 3053 
L 172 3500 
L 594 3500 
L 594 4494 
L 1172 4494 
z
" transform="scale(0.015625)"/>
       </defs>
       <use xlink:href="#DejaVuSans-4a"/>
       <use xlink:href="#DejaVuSans-75" x="29.492188"/>
       <use xlink:href="#DejaVuSans-72" x="92.871094"/>
       <use xlink:href="#DejaVuSans-6b" x="133.984375"/>
       <use xlink:href="#DejaVuSans-61" x="190.144531"/>
       <use xlink:href="#DejaVuSans-74" x="251.423828"/>
      </g>
     </g>
    </g>
    <g id="ytick_4">
     <g id="line2d_18">
      <g>
       <use xlink:href="#m59601a69ff" x="126.34" y="112.994755" style="stroke: #000000; stroke-width: 0.8"/>
      </g>
     </g>
     <g id="text_12">
      <!-- BJAB -->
      <g transform="translate(96.0025 116.793974) scale(0.1 -0.1)">
       <defs>
        <path id="DejaVuSans-42" d="M 1259 2228 
L 1259 519 
L 2272 519 
Q 2781 519 3026 730 
Q 3272 941 3272 1375 
Q 3272 1813 3026 2020 
Q 2781 2228 2272 2228 
L 1259 2228 
z
M 1259 4147 
L 1259 2741 
L 2194 2741 
Q 2656 2741 2882 2914 
Q 3109 3088 3109 3444 
Q 3109 3797 2882 3972 
Q 2656 4147 2194 4147 
L 1259 4147 
z
M 628 4666 
L 2241 4666 
Q 2963 4666 3353 4366 
Q 3744 4066 3744 3513 
Q 3744 3084 3544 2831 
Q 3344 2578 2956 2516 
Q 3422 2416 3680 2098 
Q 3938 1781 3938 1306 
Q 3938 681 3513 340 
Q 3088 0 2303 0 
L 628 0 
L 628 4666 
z
" transform="scale(0.015625)"/>
        <path id="DejaVuSans-41" d="M 2188 4044 
L 1331 1722 
L 3047 1722 
L 2188 4044 
z
M 1831 4666 
L 2547 4666 
L 4325 0 
L 3669 0 
L 3244 1197 
L 1141 1197 
L 716 0 
L 50 0 
L 1831 4666 
z
" transform="scale(0.015625)"/>
       </defs>
       <use xlink:href="#DejaVuSans-42"/>
       <use xlink:href="#DejaVuSans-4a" x="68.603516"/>
       <use xlink:href="#DejaVuSans-41" x="96.345703"/>
       <use xlink:href="#DejaVuSans-42" x="164.753906"/>
      </g>
     </g>
    </g>
    <g id="ytick_5">
     <g id="line2d_19">
      <g>
       <use xlink:href="#m59601a69ff" x="126.34" y="131.798453" style="stroke: #000000; stroke-width: 0.8"/>
      </g>
     </g>
     <g id="text_13">
      <!-- THP-1 -->
      <g transform="translate(89.936875 135.597672) scale(0.1 -0.1)">
       <defs>
        <path id="DejaVuSans-48" d="M 628 4666 
L 1259 4666 
L 1259 2753 
L 3553 2753 
L 3553 4666 
L 4184 4666 
L 4184 0 
L 3553 0 
L 3553 2222 
L 1259 2222 
L 1259 0 
L 628 0 
L 628 4666 
z
" transform="scale(0.015625)"/>
       </defs>
       <use xlink:href="#DejaVuSans-54"/>
       <use xlink:href="#DejaVuSans-48" x="61.083984"/>
       <use xlink:href="#DejaVuSans-50" x="136.279297"/>
       <use xlink:href="#DejaVuSans-2d" x="194.332031"/>
       <use xlink:href="#DejaVuSans-31" x="230.416016"/>
      </g>
     </g>
    </g>
    <g id="ytick_6">
     <g id="line2d_20">
      <g>
       <use xlink:href="#m59601a69ff" x="126.34" y="150.602151" style="stroke: #000000; stroke-width: 0.8"/>
      </g>
     </g>
     <g id="text_14">
      <!-- F123 -->
      <g transform="translate(94.500938 154.40137) scale(0.1 -0.1)">
       <use xlink:href="#DejaVuSans-46"/>
       <use xlink:href="#DejaVuSans-31" x="57.519531"/>
       <use xlink:href="#DejaVuSans-32" x="121.142578"/>
       <use xlink:href="#DejaVuSans-33" x="184.765625"/>
      </g>
     </g>
    </g>
    <g id="ytick_7">
     <g id="line2d_21">
      <g>
       <use xlink:href="#m59601a69ff" x="126.34" y="169.405849" style="stroke: #000000; stroke-width: 0.8"/>
      </g>
     </g>
     <g id="text_15">
      <!-- glutamatergic neuron -->
      <g transform="translate(10.975938 173.205068) scale(0.1 -0.1)">
       <defs>
        <path id="DejaVuSans-67" d="M 2906 1791 
Q 2906 2416 2648 2759 
Q 2391 3103 1925 3103 
Q 1463 3103 1205 2759 
Q 947 2416 947 1791 
Q 947 1169 1205 825 
Q 1463 481 1925 481 
Q 2391 481 2648 825 
Q 2906 1169 2906 1791 
z
M 3481 434 
Q 3481 -459 3084 -895 
Q 2688 -1331 1869 -1331 
Q 1566 -1331 1297 -1286 
Q 1028 -1241 775 -1147 
L 775 -588 
Q 1028 -725 1275 -790 
Q 1522 -856 1778 -856 
Q 2344 -856 2625 -561 
Q 2906 -266 2906 331 
L 2906 616 
Q 2728 306 2450 153 
Q 2172 0 1784 0 
Q 1141 0 747 490 
Q 353 981 353 1791 
Q 353 2603 747 3093 
Q 1141 3584 1784 3584 
Q 2172 3584 2450 3431 
Q 2728 3278 2906 2969 
L 2906 3500 
L 3481 3500 
L 3481 434 
z
" transform="scale(0.015625)"/>
        <path id="DejaVuSans-6c" d="M 603 4863 
L 1178 4863 
L 1178 0 
L 603 0 
L 603 4863 
z
" transform="scale(0.015625)"/>
        <path id="DejaVuSans-6d" d="M 3328 2828 
Q 3544 3216 3844 3400 
Q 4144 3584 4550 3584 
Q 5097 3584 5394 3201 
Q 5691 2819 5691 2113 
L 5691 0 
L 5113 0 
L 5113 2094 
Q 5113 2597 4934 2840 
Q 4756 3084 4391 3084 
Q 3944 3084 3684 2787 
Q 3425 2491 3425 1978 
L 3425 0 
L 2847 0 
L 2847 2094 
Q 2847 2600 2669 2842 
Q 2491 3084 2119 3084 
Q 1678 3084 1418 2786 
Q 1159 2488 1159 1978 
L 1159 0 
L 581 0 
L 581 3500 
L 1159 3500 
L 1159 2956 
Q 1356 3278 1631 3431 
Q 1906 3584 2284 3584 
Q 2666 3584 2933 3390 
Q 3200 3197 3328 2828 
z
" transform="scale(0.015625)"/>
        <path id="DejaVuSans-69" d="M 603 3500 
L 1178 3500 
L 1178 0 
L 603 0 
L 603 3500 
z
M 603 4863 
L 1178 4863 
L 1178 4134 
L 603 4134 
L 603 4863 
z
" transform="scale(0.015625)"/>
        <path id="DejaVuSans-6f" d="M 1959 3097 
Q 1497 3097 1228 2736 
Q 959 2375 959 1747 
Q 959 1119 1226 758 
Q 1494 397 1959 397 
Q 2419 397 2687 759 
Q 2956 1122 2956 1747 
Q 2956 2369 2687 2733 
Q 2419 3097 1959 3097 
z
M 1959 3584 
Q 2709 3584 3137 3096 
Q 3566 2609 3566 1747 
Q 3566 888 3137 398 
Q 2709 -91 1959 -91 
Q 1206 -91 779 398 
Q 353 888 353 1747 
Q 353 2609 779 3096 
Q 1206 3584 1959 3584 
z
" transform="scale(0.015625)"/>
       </defs>
       <use xlink:href="#DejaVuSans-67"/>
       <use xlink:href="#DejaVuSans-6c" x="63.476562"/>
       <use xlink:href="#DejaVuSans-75" x="91.259766"/>
       <use xlink:href="#DejaVuSans-74" x="154.638672"/>
       <use xlink:href="#DejaVuSans-61" x="193.847656"/>
       <use xlink:href="#DejaVuSans-6d" x="255.126953"/>
       <use xlink:href="#DejaVuSans-61" x="352.539062"/>
       <use xlink:href="#DejaVuSans-74" x="413.818359"/>
       <use xlink:href="#DejaVuSans-65" x="453.027344"/>
       <use xlink:href="#DejaVuSans-72" x="514.550781"/>
       <use xlink:href="#DejaVuSans-67" x="553.914062"/>
       <use xlink:href="#DejaVuSans-69" x="617.390625"/>
       <use xlink:href="#DejaVuSans-63" x="645.173828"/>
       <use xlink:href="#DejaVuSans-20" x="700.154297"/>
       <use xlink:href="#DejaVuSans-6e" x="731.941406"/>
       <use xlink:href="#DejaVuSans-65" x="795.320312"/>
       <use xlink:href="#DejaVuSans-75" x="856.84375"/>
       <use xlink:href="#DejaVuSans-72" x="920.222656"/>
       <use xlink:href="#DejaVuSans-6f" x="959.085938"/>
       <use xlink:href="#DejaVuSans-6e" x="1020.267578"/>
      </g>
     </g>
    </g>
    <g id="ytick_8">
     <g id="line2d_22">
      <g>
       <use xlink:href="#m59601a69ff" x="126.34" y="188.209547" style="stroke: #000000; stroke-width: 0.8"/>
      </g>
     </g>
     <g id="text_16">
      <!-- GM12878 -->
      <g transform="translate(71.150937 192.008766) scale(0.1 -0.1)">
       <defs>
        <path id="DejaVuSans-47" d="M 3809 666 
L 3809 1919 
L 2778 1919 
L 2778 2438 
L 4434 2438 
L 4434 434 
Q 4069 175 3628 42 
Q 3188 -91 2688 -91 
Q 1594 -91 976 548 
Q 359 1188 359 2328 
Q 359 3472 976 4111 
Q 1594 4750 2688 4750 
Q 3144 4750 3555 4637 
Q 3966 4525 4313 4306 
L 4313 3634 
Q 3963 3931 3569 4081 
Q 3175 4231 2741 4231 
Q 1884 4231 1454 3753 
Q 1025 3275 1025 2328 
Q 1025 1384 1454 906 
Q 1884 428 2741 428 
Q 3075 428 3337 486 
Q 3600 544 3809 666 
z
" transform="scale(0.015625)"/>
        <path id="DejaVuSans-4d" d="M 628 4666 
L 1569 4666 
L 2759 1491 
L 3956 4666 
L 4897 4666 
L 4897 0 
L 4281 0 
L 4281 4097 
L 3078 897 
L 2444 897 
L 1241 4097 
L 1241 0 
L 628 0 
L 628 4666 
z
" transform="scale(0.015625)"/>
        <path id="DejaVuSans-38" d="M 2034 2216 
Q 1584 2216 1326 1975 
Q 1069 1734 1069 1313 
Q 1069 891 1326 650 
Q 1584 409 2034 409 
Q 2484 409 2743 651 
Q 3003 894 3003 1313 
Q 3003 1734 2745 1975 
Q 2488 2216 2034 2216 
z
M 1403 2484 
Q 997 2584 770 2862 
Q 544 3141 544 3541 
Q 544 4100 942 4425 
Q 1341 4750 2034 4750 
Q 2731 4750 3128 4425 
Q 3525 4100 3525 3541 
Q 3525 3141 3298 2862 
Q 3072 2584 2669 2484 
Q 3125 2378 3379 2068 
Q 3634 1759 3634 1313 
Q 3634 634 3220 271 
Q 2806 -91 2034 -91 
Q 1263 -91 848 271 
Q 434 634 434 1313 
Q 434 1759 690 2068 
Q 947 2378 1403 2484 
z
M 1172 3481 
Q 1172 3119 1398 2916 
Q 1625 2713 2034 2713 
Q 2441 2713 2670 2916 
Q 2900 3119 2900 3481 
Q 2900 3844 2670 4047 
Q 2441 4250 2034 4250 
Q 1625 4250 1398 4047 
Q 1172 3844 1172 3481 
z
" transform="scale(0.015625)"/>
        <path id="DejaVuSans-37" d="M 525 4666 
L 3525 4666 
L 3525 4397 
L 1831 0 
L 1172 0 
L 2766 4134 
L 525 4134 
L 525 4666 
z
" transform="scale(0.015625)"/>
       </defs>
       <use xlink:href="#DejaVuSans-47"/>
       <use xlink:href="#DejaVuSans-4d" x="77.490234"/>
       <use xlink:href="#DejaVuSans-31" x="163.769531"/>
       <use xlink:href="#DejaVuSans-32" x="227.392578"/>
       <use xlink:href="#DejaVuSans-38" x="291.015625"/>
       <use xlink:href="#DejaVuSans-37" x="354.638672"/>
       <use xlink:href="#DejaVuSans-38" x="418.261719"/>
      </g>
     </g>
    </g>
    <g id="ytick_9">
     <g id="line2d_23">
      <g>
       <use xlink:href="#m59601a69ff" x="126.34" y="207.013245" style="stroke: #000000; stroke-width: 0.8"/>
      </g>
     </g>
     <g id="text_17">
      <!-- HCT116 -->
      <g transform="translate(79.641562 210.812464) scale(0.1 -0.1)">
       <use xlink:href="#DejaVuSans-48"/>
       <use xlink:href="#DejaVuSans-43" x="75.195312"/>
       <use xlink:href="#DejaVuSans-54" x="145.019531"/>
       <use xlink:href="#DejaVuSans-31" x="206.103516"/>
       <use xlink:href="#DejaVuSans-31" x="269.726562"/>
       <use xlink:href="#DejaVuSans-36" x="333.349609"/>
      </g>
     </g>
    </g>
    <g id="ytick_10">
     <g id="line2d_24">
      <g>
       <use xlink:href="#m59601a69ff" x="126.34" y="225.816943" style="stroke: #000000; stroke-width: 0.8"/>
      </g>
     </g>
     <g id="text_18">
      <!-- neural progenitor cell -->
      <g transform="translate(11.810312 229.616162) scale(0.1 -0.1)">
       <defs>
        <path id="DejaVuSans-70" d="M 1159 525 
L 1159 -1331 
L 581 -1331 
L 581 3500 
L 1159 3500 
L 1159 2969 
Q 1341 3281 1617 3432 
Q 1894 3584 2278 3584 
Q 2916 3584 3314 3078 
Q 3713 2572 3713 1747 
Q 3713 922 3314 415 
Q 2916 -91 2278 -91 
Q 1894 -91 1617 61 
Q 1341 213 1159 525 
z
M 3116 1747 
Q 3116 2381 2855 2742 
Q 2594 3103 2138 3103 
Q 1681 3103 1420 2742 
Q 1159 2381 1159 1747 
Q 1159 1113 1420 752 
Q 1681 391 2138 391 
Q 2594 391 2855 752 
Q 3116 1113 3116 1747 
z
" transform="scale(0.015625)"/>
       </defs>
       <use xlink:href="#DejaVuSans-6e"/>
       <use xlink:href="#DejaVuSans-65" x="63.378906"/>
       <use xlink:href="#DejaVuSans-75" x="124.902344"/>
       <use xlink:href="#DejaVuSans-72" x="188.28125"/>
       <use xlink:href="#DejaVuSans-61" x="229.394531"/>
       <use xlink:href="#DejaVuSans-6c" x="290.673828"/>
       <use xlink:href="#DejaVuSans-20" x="318.457031"/>
       <use xlink:href="#DejaVuSans-70" x="350.244141"/>
       <use xlink:href="#DejaVuSans-72" x="413.720703"/>
       <use xlink:href="#DejaVuSans-6f" x="452.583984"/>
       <use xlink:href="#DejaVuSans-67" x="513.765625"/>
       <use xlink:href="#DejaVuSans-65" x="577.242188"/>
       <use xlink:href="#DejaVuSans-6e" x="638.765625"/>
       <use xlink:href="#DejaVuSans-69" x="702.144531"/>
       <use xlink:href="#DejaVuSans-74" x="729.927734"/>
       <use xlink:href="#DejaVuSans-6f" x="769.136719"/>
       <use xlink:href="#DejaVuSans-72" x="830.318359"/>
       <use xlink:href="#DejaVuSans-20" x="871.431641"/>
       <use xlink:href="#DejaVuSans-63" x="903.21875"/>
       <use xlink:href="#DejaVuSans-65" x="958.199219"/>
       <use xlink:href="#DejaVuSans-6c" x="1019.722656"/>
       <use xlink:href="#DejaVuSans-6c" x="1047.505859"/>
      </g>
     </g>
    </g>
    <g id="ytick_11">
     <g id="line2d_25">
      <g>
       <use xlink:href="#m59601a69ff" x="126.34" y="244.620641" style="stroke: #000000; stroke-width: 0.8"/>
      </g>
     </g>
     <g id="text_19">
      <!-- OCI-AML2 -->
      <g transform="translate(70.749375 248.41986) scale(0.1 -0.1)">
       <defs>
        <path id="DejaVuSans-4c" d="M 628 4666 
L 1259 4666 
L 1259 531 
L 3531 531 
L 3531 0 
L 628 0 
L 628 4666 
z
" transform="scale(0.015625)"/>
       </defs>
       <use xlink:href="#DejaVuSans-4f"/>
       <use xlink:href="#DejaVuSans-43" x="78.710938"/>
       <use xlink:href="#DejaVuSans-49" x="148.535156"/>
       <use xlink:href="#DejaVuSans-2d" x="178.027344"/>
       <use xlink:href="#DejaVuSans-41" x="211.861328"/>
       <use xlink:href="#DejaVuSans-4d" x="280.269531"/>
       <use xlink:href="#DejaVuSans-4c" x="366.548828"/>
       <use xlink:href="#DejaVuSans-32" x="422.261719"/>
      </g>
     </g>
    </g>
    <g id="ytick_12">
     <g id="line2d_26">
      <g>
       <use xlink:href="#m59601a69ff" x="126.34" y="263.424339" style="stroke: #000000; stroke-width: 0.8"/>
      </g>
     </g>
     <g id="text_20">
      <!-- PC-3 -->
      <g transform="translate(96.357188 267.223558) scale(0.1 -0.1)">
       <use xlink:href="#DejaVuSans-50"/>
       <use xlink:href="#DejaVuSans-43" x="60.302734"/>
       <use xlink:href="#DejaVuSans-2d" x="130.126953"/>
       <use xlink:href="#DejaVuSans-33" x="166.210938"/>
      </g>
     </g>
    </g>
   </g>
   <g id="patch_15">
    <path d="M 126.34 282.04 
L 126.34 37.968 
" style="fill: none; stroke: #000000; stroke-width: 0.8; stroke-linejoin: miter; stroke-linecap: square"/>
   </g>
   <g id="patch_16">
    <path d="M 126.34 282.04 
L 572.82 282.04 
" style="fill: none; stroke: #000000; stroke-width: 0.8; stroke-linejoin: miter; stroke-linecap: square"/>
   </g>
   <g id="text_21">
    <!--   n=279  ★ Yao 2024 cell line -->
    <g transform="translate(501.073811 59.067099) scale(0.09 -0.09)">
     <defs>
      <path id="DejaVuSans-Bold-20" transform="scale(0.015625)"/>
      <path id="DejaVuSans-Bold-6e" d="M 4056 2131 
L 4056 0 
L 2931 0 
L 2931 347 
L 2931 1631 
Q 2931 2084 2911 2256 
Q 2891 2428 2841 2509 
Q 2775 2619 2662 2680 
Q 2550 2741 2406 2741 
Q 2056 2741 1856 2470 
Q 1656 2200 1656 1722 
L 1656 0 
L 538 0 
L 538 3500 
L 1656 3500 
L 1656 2988 
Q 1909 3294 2193 3439 
Q 2478 3584 2822 3584 
Q 3428 3584 3742 3212 
Q 4056 2841 4056 2131 
z
" transform="scale(0.015625)"/>
      <path id="DejaVuSans-Bold-3d" d="M 678 3084 
L 4684 3084 
L 4684 2350 
L 678 2350 
L 678 3084 
z
M 678 1663 
L 4684 1663 
L 4684 922 
L 678 922 
L 678 1663 
z
" transform="scale(0.015625)"/>
      <path id="DejaVuSans-Bold-32" d="M 1844 884 
L 3897 884 
L 3897 0 
L 506 0 
L 506 884 
L 2209 2388 
Q 2438 2594 2547 2791 
Q 2656 2988 2656 3200 
Q 2656 3528 2436 3728 
Q 2216 3928 1850 3928 
Q 1569 3928 1234 3808 
Q 900 3688 519 3450 
L 519 4475 
Q 925 4609 1322 4679 
Q 1719 4750 2100 4750 
Q 2938 4750 3402 4381 
Q 3866 4013 3866 3353 
Q 3866 2972 3669 2642 
Q 3472 2313 2841 1759 
L 1844 884 
z
" transform="scale(0.015625)"/>
      <path id="DejaVuSans-Bold-37" d="M 428 4666 
L 3944 4666 
L 3944 3988 
L 2125 0 
L 953 0 
L 2675 3781 
L 428 3781 
L 428 4666 
z
" transform="scale(0.015625)"/>
      <path id="DejaVuSans-Bold-39" d="M 641 103 
L 641 966 
Q 928 831 1190 764 
Q 1453 697 1709 697 
Q 2247 697 2547 995 
Q 2847 1294 2900 1881 
Q 2688 1725 2447 1647 
Q 2206 1569 1925 1569 
Q 1209 1569 770 1986 
Q 331 2403 331 3084 
Q 331 3838 820 4291 
Q 1309 4744 2131 4744 
Q 3044 4744 3544 4128 
Q 4044 3513 4044 2388 
Q 4044 1231 3459 570 
Q 2875 -91 1856 -91 
Q 1528 -91 1228 -42 
Q 928 6 641 103 
z
M 2125 2350 
Q 2441 2350 2600 2554 
Q 2759 2759 2759 3169 
Q 2759 3575 2600 3781 
Q 2441 3988 2125 3988 
Q 1809 3988 1650 3781 
Q 1491 3575 1491 3169 
Q 1491 2759 1650 2554 
Q 1809 2350 2125 2350 
z
" transform="scale(0.015625)"/>
      <path id="DejaVuSans-Bold-2605" d="M 416 2850 
L 2288 2850 
L 2869 4628 
L 3453 2850 
L 5322 2850 
L 3809 1747 
L 4391 -28 
L 2869 1072 
L 1350 -28 
L 1928 1747 
L 416 2850 
z
" transform="scale(0.015625)"/>
      <path id="DejaVuSans-Bold-59" d="M -63 4666 
L 1253 4666 
L 2316 3003 
L 3378 4666 
L 4697 4666 
L 2919 1966 
L 2919 0 
L 1716 0 
L 1716 1966 
L -63 4666 
z
" transform="scale(0.015625)"/>
      <path id="DejaVuSans-Bold-61" d="M 2106 1575 
Q 1756 1575 1579 1456 
Q 1403 1338 1403 1106 
Q 1403 894 1545 773 
Q 1688 653 1941 653 
Q 2256 653 2472 879 
Q 2688 1106 2688 1447 
L 2688 1575 
L 2106 1575 
z
M 3816 1997 
L 3816 0 
L 2688 0 
L 2688 519 
Q 2463 200 2181 54 
Q 1900 -91 1497 -91 
Q 953 -91 614 226 
Q 275 544 275 1050 
Q 275 1666 698 1953 
Q 1122 2241 2028 2241 
L 2688 2241 
L 2688 2328 
Q 2688 2594 2478 2717 
Q 2269 2841 1825 2841 
Q 1466 2841 1156 2769 
Q 847 2697 581 2553 
L 581 3406 
Q 941 3494 1303 3539 
Q 1666 3584 2028 3584 
Q 2975 3584 3395 3211 
Q 3816 2838 3816 1997 
z
" transform="scale(0.015625)"/>
      <path id="DejaVuSans-Bold-6f" d="M 2203 2784 
Q 1831 2784 1636 2517 
Q 1441 2250 1441 1747 
Q 1441 1244 1636 976 
Q 1831 709 2203 709 
Q 2569 709 2762 976 
Q 2956 1244 2956 1747 
Q 2956 2250 2762 2517 
Q 2569 2784 2203 2784 
z
M 2203 3584 
Q 3106 3584 3614 3096 
Q 4122 2609 4122 1747 
Q 4122 884 3614 396 
Q 3106 -91 2203 -91 
Q 1297 -91 786 396 
Q 275 884 275 1747 
Q 275 2609 786 3096 
Q 1297 3584 2203 3584 
z
" transform="scale(0.015625)"/>
      <path id="DejaVuSans-Bold-30" d="M 2944 2338 
Q 2944 3213 2780 3570 
Q 2616 3928 2228 3928 
Q 1841 3928 1675 3570 
Q 1509 3213 1509 2338 
Q 1509 1453 1675 1090 
Q 1841 728 2228 728 
Q 2613 728 2778 1090 
Q 2944 1453 2944 2338 
z
M 4147 2328 
Q 4147 1169 3647 539 
Q 3147 -91 2228 -91 
Q 1306 -91 806 539 
Q 306 1169 306 2328 
Q 306 3491 806 4120 
Q 1306 4750 2228 4750 
Q 3147 4750 3647 4120 
Q 4147 3491 4147 2328 
z
" transform="scale(0.015625)"/>
      <path id="DejaVuSans-Bold-34" d="M 2356 3675 
L 1038 1722 
L 2356 1722 
L 2356 3675 
z
M 2156 4666 
L 3494 4666 
L 3494 1722 
L 4159 1722 
L 4159 850 
L 3494 850 
L 3494 0 
L 2356 0 
L 2356 850 
L 288 850 
L 288 1881 
L 2156 4666 
z
" transform="scale(0.015625)"/>
      <path id="DejaVuSans-Bold-63" d="M 3366 3391 
L 3366 2478 
Q 3138 2634 2908 2709 
Q 2678 2784 2431 2784 
Q 1963 2784 1702 2511 
Q 1441 2238 1441 1747 
Q 1441 1256 1702 982 
Q 1963 709 2431 709 
Q 2694 709 2930 787 
Q 3166 866 3366 1019 
L 3366 103 
Q 3103 6 2833 -42 
Q 2563 -91 2291 -91 
Q 1344 -91 809 395 
Q 275 881 275 1747 
Q 275 2613 809 3098 
Q 1344 3584 2291 3584 
Q 2566 3584 2833 3536 
Q 3100 3488 3366 3391 
z
" transform="scale(0.015625)"/>
      <path id="DejaVuSans-Bold-65" d="M 4031 1759 
L 4031 1441 
L 1416 1441 
Q 1456 1047 1700 850 
Q 1944 653 2381 653 
Q 2734 653 3104 758 
Q 3475 863 3866 1075 
L 3866 213 
Q 3469 63 3072 -14 
Q 2675 -91 2278 -91 
Q 1328 -91 801 392 
Q 275 875 275 1747 
Q 275 2603 792 3093 
Q 1309 3584 2216 3584 
Q 3041 3584 3536 3087 
Q 4031 2591 4031 1759 
z
M 2881 2131 
Q 2881 2450 2695 2645 
Q 2509 2841 2209 2841 
Q 1884 2841 1681 2658 
Q 1478 2475 1428 2131 
L 2881 2131 
z
" transform="scale(0.015625)"/>
      <path id="DejaVuSans-Bold-6c" d="M 538 4863 
L 1656 4863 
L 1656 0 
L 538 0 
L 538 4863 
z
" transform="scale(0.015625)"/>
      <path id="DejaVuSans-Bold-69" d="M 538 3500 
L 1656 3500 
L 1656 0 
L 538 0 
L 538 3500 
z
M 538 4863 
L 1656 4863 
L 1656 3950 
L 538 3950 
L 538 4863 
z
" transform="scale(0.015625)"/>
     </defs>
     <use xlink:href="#DejaVuSans-Bold-20"/>
     <use xlink:href="#DejaVuSans-Bold-20" x="34.814453"/>
     <use xlink:href="#DejaVuSans-Bold-6e" x="69.628906"/>
     <use xlink:href="#DejaVuSans-Bold-3d" x="140.820312"/>
     <use xlink:href="#DejaVuSans-Bold-32" x="224.609375"/>
     <use xlink:href="#DejaVuSans-Bold-37" x="294.189453"/>
     <use xlink:href="#DejaVuSans-Bold-39" x="363.769531"/>
     <use xlink:href="#DejaVuSans-Bold-20" x="433.349609"/>
     <use xlink:href="#DejaVuSans-Bold-20" x="468.164062"/>
     <use xlink:href="#DejaVuSans-Bold-2605" x="502.978516"/>
     <use xlink:href="#DejaVuSans-Bold-20" x="592.626953"/>
     <use xlink:href="#DejaVuSans-Bold-59" x="627.441406"/>
     <use xlink:href="#DejaVuSans-Bold-61" x="690.728516"/>
     <use xlink:href="#DejaVuSans-Bold-6f" x="758.208984"/>
     <use xlink:href="#DejaVuSans-Bold-20" x="826.910156"/>
     <use xlink:href="#DejaVuSans-Bold-32" x="861.724609"/>
     <use xlink:href="#DejaVuSans-Bold-30" x="931.304688"/>
     <use xlink:href="#DejaVuSans-Bold-32" x="1000.884766"/>
     <use xlink:href="#DejaVuSans-Bold-34" x="1070.464844"/>
     <use xlink:href="#DejaVuSans-Bold-20" x="1140.044922"/>
     <use xlink:href="#DejaVuSans-Bold-63" x="1174.859375"/>
     <use xlink:href="#DejaVuSans-Bold-65" x="1234.136719"/>
     <use xlink:href="#DejaVuSans-Bold-6c" x="1301.958984"/>
     <use xlink:href="#DejaVuSans-Bold-6c" x="1336.236328"/>
     <use xlink:href="#DejaVuSans-Bold-20" x="1370.513672"/>
     <use xlink:href="#DejaVuSans-Bold-6c" x="1405.328125"/>
     <use xlink:href="#DejaVuSans-Bold-69" x="1439.605469"/>
     <use xlink:href="#DejaVuSans-Bold-6e" x="1473.882812"/>
     <use xlink:href="#DejaVuSans-Bold-65" x="1545.074219"/>
    </g>
   </g>
   <g id="text_22">
    <!--   n=14 -->
    <g transform="translate(147.677157 77.870797) scale(0.09 -0.09)">
     <defs>
      <path id="DejaVuSans-3d" d="M 678 2906 
L 4684 2906 
L 4684 2381 
L 678 2381 
L 678 2906 
z
M 678 1631 
L 4684 1631 
L 4684 1100 
L 678 1100 
L 678 1631 
z
" transform="scale(0.015625)"/>
      <path id="DejaVuSans-34" d="M 2419 4116 
L 825 1625 
L 2419 1625 
L 2419 4116 
z
M 2253 4666 
L 3047 4666 
L 3047 1625 
L 3713 1625 
L 3713 1100 
L 3047 1100 
L 3047 0 
L 2419 0 
L 2419 1100 
L 313 1100 
L 313 1709 
L 2253 4666 
z
" transform="scale(0.015625)"/>
     </defs>
     <use xlink:href="#DejaVuSans-20"/>
     <use xlink:href="#DejaVuSans-20" x="31.787109"/>
     <use xlink:href="#DejaVuSans-6e" x="63.574219"/>
     <use xlink:href="#DejaVuSans-3d" x="126.953125"/>
     <use xlink:href="#DejaVuSans-31" x="210.742188"/>
     <use xlink:href="#DejaVuSans-34" x="274.365234"/>
    </g>
   </g>
   <g id="text_23">
    <!--   n=12  ★ Yao 2024 cell line -->
    <g transform="translate(145.010012 96.674495) scale(0.09 -0.09)">
     <defs>
      <path id="DejaVuSans-Bold-31" d="M 750 831 
L 1813 831 
L 1813 3847 
L 722 3622 
L 722 4441 
L 1806 4666 
L 2950 4666 
L 2950 831 
L 4013 831 
L 4013 0 
L 750 0 
L 750 831 
z
" transform="scale(0.015625)"/>
     </defs>
     <use xlink:href="#DejaVuSans-Bold-20"/>
     <use xlink:href="#DejaVuSans-Bold-20" x="34.814453"/>
     <use xlink:href="#DejaVuSans-Bold-6e" x="69.628906"/>
     <use xlink:href="#DejaVuSans-Bold-3d" x="140.820312"/>
     <use xlink:href="#DejaVuSans-Bold-31" x="224.609375"/>
     <use xlink:href="#DejaVuSans-Bold-32" x="294.189453"/>
     <use xlink:href="#DejaVuSans-Bold-20" x="363.769531"/>
     <use xlink:href="#DejaVuSans-Bold-20" x="398.583984"/>
     <use xlink:href="#DejaVuSans-Bold-2605" x="433.398438"/>
     <use xlink:href="#DejaVuSans-Bold-20" x="523.046875"/>
     <use xlink:href="#DejaVuSans-Bold-59" x="557.861328"/>
     <use xlink:href="#DejaVuSans-Bold-61" x="621.148438"/>
     <use xlink:href="#DejaVuSans-Bold-6f" x="688.628906"/>
     <use xlink:href="#DejaVuSans-Bold-20" x="757.330078"/>
     <use xlink:href="#DejaVuSans-Bold-32" x="792.144531"/>
     <use xlink:href="#DejaVuSans-Bold-30" x="861.724609"/>
     <use xlink:href="#DejaVuSans-Bold-32" x="931.304688"/>
     <use xlink:href="#DejaVuSans-Bold-34" x="1000.884766"/>
     <use xlink:href="#DejaVuSans-Bold-20" x="1070.464844"/>
     <use xlink:href="#DejaVuSans-Bold-63" x="1105.279297"/>
     <use xlink:href="#DejaVuSans-Bold-65" x="1164.556641"/>
     <use xlink:href="#DejaVuSans-Bold-6c" x="1232.378906"/>
     <use xlink:href="#DejaVuSans-Bold-6c" x="1266.65625"/>
     <use xlink:href="#DejaVuSans-Bold-20" x="1300.933594"/>
     <use xlink:href="#DejaVuSans-Bold-6c" x="1335.748047"/>
     <use xlink:href="#DejaVuSans-Bold-69" x="1370.025391"/>
     <use xlink:href="#DejaVuSans-Bold-6e" x="1404.302734"/>
     <use xlink:href="#DejaVuSans-Bold-65" x="1475.494141"/>
    </g>
   </g>
   <g id="text_24">
    <!--   n=12 -->
    <g transform="translate(145.010012 115.478193) scale(0.09 -0.09)">
     <use xlink:href="#DejaVuSans-20"/>
     <use xlink:href="#DejaVuSans-20" x="31.787109"/>
     <use xlink:href="#DejaVuSans-6e" x="63.574219"/>
     <use xlink:href="#DejaVuSans-3d" x="126.953125"/>
     <use xlink:href="#DejaVuSans-31" x="210.742188"/>
     <use xlink:href="#DejaVuSans-32" x="274.365234"/>
    </g>
   </g>
   <g id="text_25">
    <!--   n=12 -->
    <g transform="translate(145.010012 134.281891) scale(0.09 -0.09)">
     <use xlink:href="#DejaVuSans-20"/>
     <use xlink:href="#DejaVuSans-20" x="31.787109"/>
     <use xlink:href="#DejaVuSans-6e" x="63.574219"/>
     <use xlink:href="#DejaVuSans-3d" x="126.953125"/>
     <use xlink:href="#DejaVuSans-31" x="210.742188"/>
     <use xlink:href="#DejaVuSans-32" x="274.365234"/>
    </g>
   </g>
   <g id="text_26">
    <!--   n=10 -->
    <g transform="translate(142.342867 153.085589) scale(0.09 -0.09)">
     <use xlink:href="#DejaVuSans-20"/>
     <use xlink:href="#DejaVuSans-20" x="31.787109"/>
     <use xlink:href="#DejaVuSans-6e" x="63.574219"/>
     <use xlink:href="#DejaVuSans-3d" x="126.953125"/>
     <use xlink:href="#DejaVuSans-31" x="210.742188"/>
     <use xlink:href="#DejaVuSans-30" x="274.365234"/>
    </g>
   </g>
   <g id="text_27">
    <!--   n=7 -->
    <g transform="translate(138.342151 171.889286) scale(0.09 -0.09)">
     <use xlink:href="#DejaVuSans-20"/>
     <use xlink:href="#DejaVuSans-20" x="31.787109"/>
     <use xlink:href="#DejaVuSans-6e" x="63.574219"/>
     <use xlink:href="#DejaVuSans-3d" x="126.953125"/>
     <use xlink:href="#DejaVuSans-37" x="210.742188"/>
    </g>
   </g>
   <g id="text_28">
    <!--   n=6 -->
    <g transform="translate(137.008578 190.692984) scale(0.09 -0.09)">
     <use xlink:href="#DejaVuSans-20"/>
     <use xlink:href="#DejaVuSans-20" x="31.787109"/>
     <use xlink:href="#DejaVuSans-6e" x="63.574219"/>
     <use xlink:href="#DejaVuSans-3d" x="126.953125"/>
     <use xlink:href="#DejaVuSans-36" x="210.742188"/>
    </g>
   </g>
   <g id="text_29">
    <!--   n=5 -->
    <g transform="translate(135.675006 209.496682) scale(0.09 -0.09)">
     <use xlink:href="#DejaVuSans-20"/>
     <use xlink:href="#DejaVuSans-20" x="31.787109"/>
     <use xlink:href="#DejaVuSans-6e" x="63.574219"/>
     <use xlink:href="#DejaVuSans-3d" x="126.953125"/>
     <use xlink:href="#DejaVuSans-35" x="210.742188"/>
    </g>
   </g>
   <g id="text_30">
    <!--   n=1 -->
    <g transform="translate(130.340717 228.30038) scale(0.09 -0.09)">
     <use xlink:href="#DejaVuSans-20"/>
     <use xlink:href="#DejaVuSans-20" x="31.787109"/>
     <use xlink:href="#DejaVuSans-6e" x="63.574219"/>
     <use xlink:href="#DejaVuSans-3d" x="126.953125"/>
     <use xlink:href="#DejaVuSans-31" x="210.742188"/>
    </g>
   </g>
   <g id="text_31">
    <!--   n=1 -->
    <g transform="translate(130.340717 247.104078) scale(0.09 -0.09)">
     <use xlink:href="#DejaVuSans-20"/>
     <use xlink:href="#DejaVuSans-20" x="31.787109"/>
     <use xlink:href="#DejaVuSans-6e" x="63.574219"/>
     <use xlink:href="#DejaVuSans-3d" x="126.953125"/>
     <use xlink:href="#DejaVuSans-31" x="210.742188"/>
    </g>
   </g>
   <g id="text_32">
    <!--   n=1 -->
    <g transform="translate(130.340717 265.907776) scale(0.09 -0.09)">
     <use xlink:href="#DejaVuSans-20"/>
     <use xlink:href="#DejaVuSans-20" x="31.787109"/>
     <use xlink:href="#DejaVuSans-6e" x="63.574219"/>
     <use xlink:href="#DejaVuSans-3d" x="126.953125"/>
     <use xlink:href="#DejaVuSans-31" x="210.742188"/>
    </g>
   </g>
   <g id="text_33">
    <!-- ENCODE FunctionalCharacterizationExperiment CRISPR screens by biosample -->
    <g transform="translate(109.398438 19.564469) scale(0.11 -0.11)">
     <defs>
      <path id="DejaVuSans-Bold-45" d="M 588 4666 
L 3834 4666 
L 3834 3756 
L 1791 3756 
L 1791 2888 
L 3713 2888 
L 3713 1978 
L 1791 1978 
L 1791 909 
L 3903 909 
L 3903 0 
L 588 0 
L 588 4666 
z
" transform="scale(0.015625)"/>
      <path id="DejaVuSans-Bold-4e" d="M 588 4666 
L 1931 4666 
L 3628 1466 
L 3628 4666 
L 4769 4666 
L 4769 0 
L 3425 0 
L 1728 3200 
L 1728 0 
L 588 0 
L 588 4666 
z
" transform="scale(0.015625)"/>
      <path id="DejaVuSans-Bold-43" d="M 4288 256 
Q 3956 84 3597 -3 
Q 3238 -91 2847 -91 
Q 1681 -91 1000 561 
Q 319 1213 319 2328 
Q 319 3447 1000 4098 
Q 1681 4750 2847 4750 
Q 3238 4750 3597 4662 
Q 3956 4575 4288 4403 
L 4288 3438 
Q 3953 3666 3628 3772 
Q 3303 3878 2944 3878 
Q 2300 3878 1931 3465 
Q 1563 3053 1563 2328 
Q 1563 1606 1931 1193 
Q 2300 781 2944 781 
Q 3303 781 3628 887 
Q 3953 994 4288 1222 
L 4288 256 
z
" transform="scale(0.015625)"/>
      <path id="DejaVuSans-Bold-4f" d="M 2719 3878 
Q 2169 3878 1866 3472 
Q 1563 3066 1563 2328 
Q 1563 1594 1866 1187 
Q 2169 781 2719 781 
Q 3272 781 3575 1187 
Q 3878 1594 3878 2328 
Q 3878 3066 3575 3472 
Q 3272 3878 2719 3878 
z
M 2719 4750 
Q 3844 4750 4481 4106 
Q 5119 3463 5119 2328 
Q 5119 1197 4481 553 
Q 3844 -91 2719 -91 
Q 1597 -91 958 553 
Q 319 1197 319 2328 
Q 319 3463 958 4106 
Q 1597 4750 2719 4750 
z
" transform="scale(0.015625)"/>
      <path id="DejaVuSans-Bold-44" d="M 1791 3756 
L 1791 909 
L 2222 909 
Q 2959 909 3348 1275 
Q 3738 1641 3738 2338 
Q 3738 3031 3350 3393 
Q 2963 3756 2222 3756 
L 1791 3756 
z
M 588 4666 
L 1856 4666 
Q 2919 4666 3439 4514 
Q 3959 4363 4331 4000 
Q 4659 3684 4818 3271 
Q 4978 2859 4978 2338 
Q 4978 1809 4818 1395 
Q 4659 981 4331 666 
Q 3956 303 3431 151 
Q 2906 0 1856 0 
L 588 0 
L 588 4666 
z
" transform="scale(0.015625)"/>
      <path id="DejaVuSans-Bold-46" d="M 588 4666 
L 3834 4666 
L 3834 3756 
L 1791 3756 
L 1791 2888 
L 3713 2888 
L 3713 1978 
L 1791 1978 
L 1791 0 
L 588 0 
L 588 4666 
z
" transform="scale(0.015625)"/>
      <path id="DejaVuSans-Bold-75" d="M 500 1363 
L 500 3500 
L 1625 3500 
L 1625 3150 
Q 1625 2866 1622 2436 
Q 1619 2006 1619 1863 
Q 1619 1441 1641 1255 
Q 1663 1069 1716 984 
Q 1784 875 1895 815 
Q 2006 756 2150 756 
Q 2500 756 2700 1025 
Q 2900 1294 2900 1772 
L 2900 3500 
L 4019 3500 
L 4019 0 
L 2900 0 
L 2900 506 
Q 2647 200 2364 54 
Q 2081 -91 1741 -91 
Q 1134 -91 817 281 
Q 500 653 500 1363 
z
" transform="scale(0.015625)"/>
      <path id="DejaVuSans-Bold-74" d="M 1759 4494 
L 1759 3500 
L 2913 3500 
L 2913 2700 
L 1759 2700 
L 1759 1216 
Q 1759 972 1856 886 
Q 1953 800 2241 800 
L 2816 800 
L 2816 0 
L 1856 0 
Q 1194 0 917 276 
Q 641 553 641 1216 
L 641 2700 
L 84 2700 
L 84 3500 
L 641 3500 
L 641 4494 
L 1759 4494 
z
" transform="scale(0.015625)"/>
      <path id="DejaVuSans-Bold-68" d="M 4056 2131 
L 4056 0 
L 2931 0 
L 2931 347 
L 2931 1625 
Q 2931 2084 2911 2256 
Q 2891 2428 2841 2509 
Q 2775 2619 2662 2680 
Q 2550 2741 2406 2741 
Q 2056 2741 1856 2470 
Q 1656 2200 1656 1722 
L 1656 0 
L 538 0 
L 538 4863 
L 1656 4863 
L 1656 2988 
Q 1909 3294 2193 3439 
Q 2478 3584 2822 3584 
Q 3428 3584 3742 3212 
Q 4056 2841 4056 2131 
z
" transform="scale(0.015625)"/>
      <path id="DejaVuSans-Bold-72" d="M 3138 2547 
Q 2991 2616 2845 2648 
Q 2700 2681 2553 2681 
Q 2122 2681 1889 2404 
Q 1656 2128 1656 1613 
L 1656 0 
L 538 0 
L 538 3500 
L 1656 3500 
L 1656 2925 
Q 1872 3269 2151 3426 
Q 2431 3584 2822 3584 
Q 2878 3584 2943 3579 
Q 3009 3575 3134 3559 
L 3138 2547 
z
" transform="scale(0.015625)"/>
      <path id="DejaVuSans-Bold-7a" d="M 366 3500 
L 3419 3500 
L 3419 2719 
L 1575 800 
L 3419 800 
L 3419 0 
L 288 0 
L 288 781 
L 2131 2700 
L 366 2700 
L 366 3500 
z
" transform="scale(0.015625)"/>
      <path id="DejaVuSans-Bold-78" d="M 1422 1791 
L 159 3500 
L 1344 3500 
L 2059 2463 
L 2784 3500 
L 3969 3500 
L 2706 1797 
L 4031 0 
L 2847 0 
L 2059 1106 
L 1281 0 
L 97 0 
L 1422 1791 
z
" transform="scale(0.015625)"/>
      <path id="DejaVuSans-Bold-70" d="M 1656 506 
L 1656 -1331 
L 538 -1331 
L 538 3500 
L 1656 3500 
L 1656 2988 
Q 1888 3294 2169 3439 
Q 2450 3584 2816 3584 
Q 3463 3584 3878 3070 
Q 4294 2556 4294 1747 
Q 4294 938 3878 423 
Q 3463 -91 2816 -91 
Q 2450 -91 2169 54 
Q 1888 200 1656 506 
z
M 2400 2772 
Q 2041 2772 1848 2508 
Q 1656 2244 1656 1747 
Q 1656 1250 1848 986 
Q 2041 722 2400 722 
Q 2759 722 2948 984 
Q 3138 1247 3138 1747 
Q 3138 2247 2948 2509 
Q 2759 2772 2400 2772 
z
" transform="scale(0.015625)"/>
      <path id="DejaVuSans-Bold-6d" d="M 3781 2919 
Q 3994 3244 4286 3414 
Q 4578 3584 4928 3584 
Q 5531 3584 5847 3212 
Q 6163 2841 6163 2131 
L 6163 0 
L 5038 0 
L 5038 1825 
Q 5041 1866 5042 1909 
Q 5044 1953 5044 2034 
Q 5044 2406 4934 2573 
Q 4825 2741 4581 2741 
Q 4263 2741 4089 2478 
Q 3916 2216 3909 1719 
L 3909 0 
L 2784 0 
L 2784 1825 
Q 2784 2406 2684 2573 
Q 2584 2741 2328 2741 
Q 2006 2741 1831 2477 
Q 1656 2213 1656 1722 
L 1656 0 
L 531 0 
L 531 3500 
L 1656 3500 
L 1656 2988 
Q 1863 3284 2130 3434 
Q 2397 3584 2719 3584 
Q 3081 3584 3359 3409 
Q 3638 3234 3781 2919 
z
" transform="scale(0.015625)"/>
      <path id="DejaVuSans-Bold-52" d="M 2297 2597 
Q 2675 2597 2839 2737 
Q 3003 2878 3003 3200 
Q 3003 3519 2839 3656 
Q 2675 3794 2297 3794 
L 1791 3794 
L 1791 2597 
L 2297 2597 
z
M 1791 1766 
L 1791 0 
L 588 0 
L 588 4666 
L 2425 4666 
Q 3347 4666 3776 4356 
Q 4206 4047 4206 3378 
Q 4206 2916 3982 2619 
Q 3759 2322 3309 2181 
Q 3556 2125 3751 1926 
Q 3947 1728 4147 1325 
L 4800 0 
L 3519 0 
L 2950 1159 
Q 2778 1509 2601 1637 
Q 2425 1766 2131 1766 
L 1791 1766 
z
" transform="scale(0.015625)"/>
      <path id="DejaVuSans-Bold-49" d="M 588 4666 
L 1791 4666 
L 1791 0 
L 588 0 
L 588 4666 
z
" transform="scale(0.015625)"/>
      <path id="DejaVuSans-Bold-53" d="M 3834 4519 
L 3834 3531 
Q 3450 3703 3084 3790 
Q 2719 3878 2394 3878 
Q 1963 3878 1756 3759 
Q 1550 3641 1550 3391 
Q 1550 3203 1689 3098 
Q 1828 2994 2194 2919 
L 2706 2816 
Q 3484 2659 3812 2340 
Q 4141 2022 4141 1434 
Q 4141 663 3683 286 
Q 3225 -91 2284 -91 
Q 1841 -91 1394 -6 
Q 947 78 500 244 
L 500 1259 
Q 947 1022 1364 901 
Q 1781 781 2169 781 
Q 2563 781 2772 912 
Q 2981 1044 2981 1288 
Q 2981 1506 2839 1625 
Q 2697 1744 2272 1838 
L 1806 1941 
Q 1106 2091 782 2419 
Q 459 2747 459 3303 
Q 459 4000 909 4375 
Q 1359 4750 2203 4750 
Q 2588 4750 2994 4692 
Q 3400 4634 3834 4519 
z
" transform="scale(0.015625)"/>
      <path id="DejaVuSans-Bold-50" d="M 588 4666 
L 2584 4666 
Q 3475 4666 3951 4270 
Q 4428 3875 4428 3144 
Q 4428 2409 3951 2014 
Q 3475 1619 2584 1619 
L 1791 1619 
L 1791 0 
L 588 0 
L 588 4666 
z
M 1791 3794 
L 1791 2491 
L 2456 2491 
Q 2806 2491 2997 2661 
Q 3188 2831 3188 3144 
Q 3188 3456 2997 3625 
Q 2806 3794 2456 3794 
L 1791 3794 
z
" transform="scale(0.015625)"/>
      <path id="DejaVuSans-Bold-73" d="M 3272 3391 
L 3272 2541 
Q 2913 2691 2578 2766 
Q 2244 2841 1947 2841 
Q 1628 2841 1473 2761 
Q 1319 2681 1319 2516 
Q 1319 2381 1436 2309 
Q 1553 2238 1856 2203 
L 2053 2175 
Q 2913 2066 3209 1816 
Q 3506 1566 3506 1031 
Q 3506 472 3093 190 
Q 2681 -91 1863 -91 
Q 1516 -91 1145 -36 
Q 775 19 384 128 
L 384 978 
Q 719 816 1070 734 
Q 1422 653 1784 653 
Q 2113 653 2278 743 
Q 2444 834 2444 1013 
Q 2444 1163 2330 1236 
Q 2216 1309 1875 1350 
L 1678 1375 
Q 931 1469 631 1722 
Q 331 1975 331 2491 
Q 331 3047 712 3315 
Q 1094 3584 1881 3584 
Q 2191 3584 2531 3537 
Q 2872 3491 3272 3391 
z
" transform="scale(0.015625)"/>
      <path id="DejaVuSans-Bold-62" d="M 2400 722 
Q 2759 722 2948 984 
Q 3138 1247 3138 1747 
Q 3138 2247 2948 2509 
Q 2759 2772 2400 2772 
Q 2041 2772 1848 2508 
Q 1656 2244 1656 1747 
Q 1656 1250 1848 986 
Q 2041 722 2400 722 
z
M 1656 2988 
Q 1888 3294 2169 3439 
Q 2450 3584 2816 3584 
Q 3463 3584 3878 3070 
Q 4294 2556 4294 1747 
Q 4294 938 3878 423 
Q 3463 -91 2816 -91 
Q 2450 -91 2169 54 
Q 1888 200 1656 506 
L 1656 0 
L 538 0 
L 538 4863 
L 1656 4863 
L 1656 2988 
z
" transform="scale(0.015625)"/>
      <path id="DejaVuSans-Bold-79" d="M 78 3500 
L 1197 3500 
L 2138 1125 
L 2938 3500 
L 4056 3500 
L 2584 -331 
Q 2363 -916 2067 -1148 
Q 1772 -1381 1288 -1381 
L 641 -1381 
L 641 -647 
L 991 -647 
Q 1275 -647 1404 -556 
Q 1534 -466 1606 -231 
L 1638 -134 
L 78 3500 
z
" transform="scale(0.015625)"/>
     </defs>
     <use xlink:href="#DejaVuSans-Bold-45"/>
     <use xlink:href="#DejaVuSans-Bold-4e" x="68.310547"/>
     <use xlink:href="#DejaVuSans-Bold-43" x="152.001953"/>
     <use xlink:href="#DejaVuSans-Bold-4f" x="225.390625"/>
     <use xlink:href="#DejaVuSans-Bold-44" x="310.400391"/>
     <use xlink:href="#DejaVuSans-Bold-45" x="393.408203"/>
     <use xlink:href="#DejaVuSans-Bold-20" x="461.71875"/>
     <use xlink:href="#DejaVuSans-Bold-46" x="496.533203"/>
     <use xlink:href="#DejaVuSans-Bold-75" x="559.84375"/>
     <use xlink:href="#DejaVuSans-Bold-6e" x="631.035156"/>
     <use xlink:href="#DejaVuSans-Bold-63" x="702.226562"/>
     <use xlink:href="#DejaVuSans-Bold-74" x="761.503906"/>
     <use xlink:href="#DejaVuSans-Bold-69" x="809.306641"/>
     <use xlink:href="#DejaVuSans-Bold-6f" x="843.583984"/>
     <use xlink:href="#DejaVuSans-Bold-6e" x="912.285156"/>
     <use xlink:href="#DejaVuSans-Bold-61" x="983.476562"/>
     <use xlink:href="#DejaVuSans-Bold-6c" x="1050.957031"/>
     <use xlink:href="#DejaVuSans-Bold-43" x="1085.234375"/>
     <use xlink:href="#DejaVuSans-Bold-68" x="1158.623047"/>
     <use xlink:href="#DejaVuSans-Bold-61" x="1229.814453"/>
     <use xlink:href="#DejaVuSans-Bold-72" x="1297.294922"/>
     <use xlink:href="#DejaVuSans-Bold-61" x="1346.611328"/>
     <use xlink:href="#DejaVuSans-Bold-63" x="1414.091797"/>
     <use xlink:href="#DejaVuSans-Bold-74" x="1473.369141"/>
     <use xlink:href="#DejaVuSans-Bold-65" x="1521.171875"/>
     <use xlink:href="#DejaVuSans-Bold-72" x="1588.994141"/>
     <use xlink:href="#DejaVuSans-Bold-69" x="1638.310547"/>
     <use xlink:href="#DejaVuSans-Bold-7a" x="1672.587891"/>
     <use xlink:href="#DejaVuSans-Bold-61" x="1730.791016"/>
     <use xlink:href="#DejaVuSans-Bold-74" x="1798.271484"/>
     <use xlink:href="#DejaVuSans-Bold-69" x="1846.074219"/>
     <use xlink:href="#DejaVuSans-Bold-6f" x="1880.351562"/>
     <use xlink:href="#DejaVuSans-Bold-6e" x="1949.052734"/>
     <use xlink:href="#DejaVuSans-Bold-45" x="2020.244141"/>
     <use xlink:href="#DejaVuSans-Bold-78" x="2088.554688"/>
     <use xlink:href="#DejaVuSans-Bold-70" x="2153.056641"/>
     <use xlink:href="#DejaVuSans-Bold-65" x="2224.638672"/>
     <use xlink:href="#DejaVuSans-Bold-72" x="2292.460938"/>
     <use xlink:href="#DejaVuSans-Bold-69" x="2341.777344"/>
     <use xlink:href="#DejaVuSans-Bold-6d" x="2376.054688"/>
     <use xlink:href="#DejaVuSans-Bold-65" x="2480.253906"/>
     <use xlink:href="#DejaVuSans-Bold-6e" x="2548.076172"/>
     <use xlink:href="#DejaVuSans-Bold-74" x="2619.267578"/>
     <use xlink:href="#DejaVuSans-Bold-20" x="2667.070312"/>
     <use xlink:href="#DejaVuSans-Bold-43" x="2701.884766"/>
     <use xlink:href="#DejaVuSans-Bold-52" x="2775.273438"/>
     <use xlink:href="#DejaVuSans-Bold-49" x="2852.275391"/>
     <use xlink:href="#DejaVuSans-Bold-53" x="2889.482422"/>
     <use xlink:href="#DejaVuSans-Bold-50" x="2961.503906"/>
     <use xlink:href="#DejaVuSans-Bold-52" x="3034.794922"/>
     <use xlink:href="#DejaVuSans-Bold-20" x="3111.796875"/>
     <use xlink:href="#DejaVuSans-Bold-73" x="3146.611328"/>
     <use xlink:href="#DejaVuSans-Bold-63" x="3206.132812"/>
     <use xlink:href="#DejaVuSans-Bold-72" x="3265.410156"/>
     <use xlink:href="#DejaVuSans-Bold-65" x="3314.726562"/>
     <use xlink:href="#DejaVuSans-Bold-65" x="3382.548828"/>
     <use xlink:href="#DejaVuSans-Bold-6e" x="3450.371094"/>
     <use xlink:href="#DejaVuSans-Bold-73" x="3521.5625"/>
     <use xlink:href="#DejaVuSans-Bold-20" x="3581.083984"/>
     <use xlink:href="#DejaVuSans-Bold-62" x="3615.898438"/>
     <use xlink:href="#DejaVuSans-Bold-79" x="3687.480469"/>
     <use xlink:href="#DejaVuSans-Bold-20" x="3752.666016"/>
     <use xlink:href="#DejaVuSans-Bold-62" x="3787.480469"/>
     <use xlink:href="#DejaVuSans-Bold-69" x="3859.0625"/>
     <use xlink:href="#DejaVuSans-Bold-6f" x="3893.339844"/>
     <use xlink:href="#DejaVuSans-Bold-73" x="3962.041016"/>
     <use xlink:href="#DejaVuSans-Bold-61" x="4021.5625"/>
     <use xlink:href="#DejaVuSans-Bold-6d" x="4089.042969"/>
     <use xlink:href="#DejaVuSans-Bold-70" x="4193.242188"/>
     <use xlink:href="#DejaVuSans-Bold-6c" x="4264.824219"/>
     <use xlink:href="#DejaVuSans-Bold-65" x="4299.101562"/>
    </g>
    <!-- K562 / HepG2 / Jurkat (★) = Yao 2024's three cell lines -->
    <g transform="translate(181.503438 31.968) scale(0.11 -0.11)">
     <defs>
      <path id="DejaVuSans-Bold-4b" d="M 588 4666 
L 1791 4666 
L 1791 2963 
L 3525 4666 
L 4922 4666 
L 2675 2456 
L 5153 0 
L 3647 0 
L 1791 1838 
L 1791 0 
L 588 0 
L 588 4666 
z
" transform="scale(0.015625)"/>
      <path id="DejaVuSans-Bold-35" d="M 678 4666 
L 3669 4666 
L 3669 3781 
L 1638 3781 
L 1638 3059 
Q 1775 3097 1914 3117 
Q 2053 3138 2203 3138 
Q 3056 3138 3531 2711 
Q 4006 2284 4006 1522 
Q 4006 766 3489 337 
Q 2972 -91 2053 -91 
Q 1656 -91 1267 -14 
Q 878 63 494 219 
L 494 1166 
Q 875 947 1217 837 
Q 1559 728 1863 728 
Q 2300 728 2551 942 
Q 2803 1156 2803 1522 
Q 2803 1891 2551 2103 
Q 2300 2316 1863 2316 
Q 1603 2316 1309 2248 
Q 1016 2181 678 2041 
L 678 4666 
z
" transform="scale(0.015625)"/>
      <path id="DejaVuSans-Bold-36" d="M 2316 2303 
Q 2000 2303 1842 2098 
Q 1684 1894 1684 1484 
Q 1684 1075 1842 870 
Q 2000 666 2316 666 
Q 2634 666 2792 870 
Q 2950 1075 2950 1484 
Q 2950 1894 2792 2098 
Q 2634 2303 2316 2303 
z
M 3803 4544 
L 3803 3681 
Q 3506 3822 3243 3889 
Q 2981 3956 2731 3956 
Q 2194 3956 1894 3657 
Q 1594 3359 1544 2772 
Q 1750 2925 1990 3001 
Q 2231 3078 2516 3078 
Q 3231 3078 3670 2659 
Q 4109 2241 4109 1563 
Q 4109 813 3618 361 
Q 3128 -91 2303 -91 
Q 1394 -91 895 523 
Q 397 1138 397 2266 
Q 397 3422 980 4083 
Q 1563 4744 2578 4744 
Q 2900 4744 3203 4694 
Q 3506 4644 3803 4544 
z
" transform="scale(0.015625)"/>
      <path id="DejaVuSans-Bold-2f" d="M 1644 4666 
L 2338 4666 
L 691 -594 
L 0 -594 
L 1644 4666 
z
" transform="scale(0.015625)"/>
      <path id="DejaVuSans-Bold-48" d="M 588 4666 
L 1791 4666 
L 1791 2888 
L 3566 2888 
L 3566 4666 
L 4769 4666 
L 4769 0 
L 3566 0 
L 3566 1978 
L 1791 1978 
L 1791 0 
L 588 0 
L 588 4666 
z
" transform="scale(0.015625)"/>
      <path id="DejaVuSans-Bold-47" d="M 4781 347 
Q 4331 128 3847 18 
Q 3363 -91 2847 -91 
Q 1681 -91 1000 561 
Q 319 1213 319 2328 
Q 319 3456 1012 4103 
Q 1706 4750 2913 4750 
Q 3378 4750 3804 4662 
Q 4231 4575 4609 4403 
L 4609 3438 
Q 4219 3659 3833 3768 
Q 3447 3878 3059 3878 
Q 2341 3878 1952 3476 
Q 1563 3075 1563 2328 
Q 1563 1588 1938 1184 
Q 2313 781 3003 781 
Q 3191 781 3352 804 
Q 3513 828 3641 878 
L 3641 1784 
L 2906 1784 
L 2906 2591 
L 4781 2591 
L 4781 347 
z
" transform="scale(0.015625)"/>
      <path id="DejaVuSans-Bold-4a" d="M 588 4666 
L 1791 4666 
L 1791 453 
Q 1791 -419 1317 -850 
Q 844 -1281 -116 -1281 
L -359 -1281 
L -359 -372 
L -172 -372 
Q 203 -372 395 -162 
Q 588 47 588 453 
L 588 4666 
z
" transform="scale(0.015625)"/>
      <path id="DejaVuSans-Bold-6b" d="M 538 4863 
L 1656 4863 
L 1656 2216 
L 2944 3500 
L 4244 3500 
L 2534 1894 
L 4378 0 
L 3022 0 
L 1656 1459 
L 1656 0 
L 538 0 
L 538 4863 
z
" transform="scale(0.015625)"/>
      <path id="DejaVuSans-Bold-28" d="M 2413 -844 
L 1484 -844 
Q 1006 -72 778 623 
Q 550 1319 550 2003 
Q 550 2688 779 3389 
Q 1009 4091 1484 4856 
L 2413 4856 
Q 2013 4116 1813 3408 
Q 1613 2700 1613 2009 
Q 1613 1319 1811 609 
Q 2009 -100 2413 -844 
z
" transform="scale(0.015625)"/>
      <path id="DejaVuSans-Bold-29" d="M 513 -844 
Q 913 -100 1113 609 
Q 1313 1319 1313 2009 
Q 1313 2700 1113 3408 
Q 913 4116 513 4856 
L 1441 4856 
Q 1916 4091 2145 3389 
Q 2375 2688 2375 2003 
Q 2375 1319 2147 623 
Q 1919 -72 1441 -844 
L 513 -844 
z
" transform="scale(0.015625)"/>
      <path id="DejaVuSans-Bold-27" d="M 1350 4666 
L 1350 2931 
L 609 2931 
L 609 4666 
L 1350 4666 
z
" transform="scale(0.015625)"/>
     </defs>
     <use xlink:href="#DejaVuSans-Bold-4b"/>
     <use xlink:href="#DejaVuSans-Bold-35" x="77.490234"/>
     <use xlink:href="#DejaVuSans-Bold-36" x="147.070312"/>
     <use xlink:href="#DejaVuSans-Bold-32" x="216.650391"/>
     <use xlink:href="#DejaVuSans-Bold-20" x="286.230469"/>
     <use xlink:href="#DejaVuSans-Bold-2f" x="321.044922"/>
     <use xlink:href="#DejaVuSans-Bold-20" x="357.568359"/>
     <use xlink:href="#DejaVuSans-Bold-48" x="392.382812"/>
     <use xlink:href="#DejaVuSans-Bold-65" x="476.074219"/>
     <use xlink:href="#DejaVuSans-Bold-70" x="543.896484"/>
     <use xlink:href="#DejaVuSans-Bold-47" x="615.478516"/>
     <use xlink:href="#DejaVuSans-Bold-32" x="697.558594"/>
     <use xlink:href="#DejaVuSans-Bold-20" x="767.138672"/>
     <use xlink:href="#DejaVuSans-Bold-2f" x="801.953125"/>
     <use xlink:href="#DejaVuSans-Bold-20" x="838.476562"/>
     <use xlink:href="#DejaVuSans-Bold-4a" x="873.291016"/>
     <use xlink:href="#DejaVuSans-Bold-75" x="910.498047"/>
     <use xlink:href="#DejaVuSans-Bold-72" x="981.689453"/>
     <use xlink:href="#DejaVuSans-Bold-6b" x="1031.005859"/>
     <use xlink:href="#DejaVuSans-Bold-61" x="1097.509766"/>
     <use xlink:href="#DejaVuSans-Bold-74" x="1164.990234"/>
     <use xlink:href="#DejaVuSans-Bold-20" x="1212.792969"/>
     <use xlink:href="#DejaVuSans-Bold-28" x="1247.607422"/>
     <use xlink:href="#DejaVuSans-Bold-2605" x="1293.310547"/>
     <use xlink:href="#DejaVuSans-Bold-29" x="1382.958984"/>
     <use xlink:href="#DejaVuSans-Bold-20" x="1428.662109"/>
     <use xlink:href="#DejaVuSans-Bold-3d" x="1463.476562"/>
     <use xlink:href="#DejaVuSans-Bold-20" x="1547.265625"/>
     <use xlink:href="#DejaVuSans-Bold-59" x="1582.080078"/>
     <use xlink:href="#DejaVuSans-Bold-61" x="1645.367188"/>
     <use xlink:href="#DejaVuSans-Bold-6f" x="1712.847656"/>
     <use xlink:href="#DejaVuSans-Bold-20" x="1781.548828"/>
     <use xlink:href="#DejaVuSans-Bold-32" x="1816.363281"/>
     <use xlink:href="#DejaVuSans-Bold-30" x="1885.943359"/>
     <use xlink:href="#DejaVuSans-Bold-32" x="1955.523438"/>
     <use xlink:href="#DejaVuSans-Bold-34" x="2025.103516"/>
     <use xlink:href="#DejaVuSans-Bold-27" x="2094.683594"/>
     <use xlink:href="#DejaVuSans-Bold-73" x="2125.298828"/>
     <use xlink:href="#DejaVuSans-Bold-20" x="2184.820312"/>
     <use xlink:href="#DejaVuSans-Bold-74" x="2219.634766"/>
     <use xlink:href="#DejaVuSans-Bold-68" x="2267.4375"/>
     <use xlink:href="#DejaVuSans-Bold-72" x="2338.628906"/>
     <use xlink:href="#DejaVuSans-Bold-65" x="2387.945312"/>
     <use xlink:href="#DejaVuSans-Bold-65" x="2455.767578"/>
     <use xlink:href="#DejaVuSans-Bold-20" x="2523.589844"/>
     <use xlink:href="#DejaVuSans-Bold-63" x="2558.404297"/>
     <use xlink:href="#DejaVuSans-Bold-65" x="2617.681641"/>
     <use xlink:href="#DejaVuSans-Bold-6c" x="2685.503906"/>
     <use xlink:href="#DejaVuSans-Bold-6c" x="2719.78125"/>
     <use xlink:href="#DejaVuSans-Bold-20" x="2754.058594"/>
     <use xlink:href="#DejaVuSans-Bold-6c" x="2788.873047"/>
     <use xlink:href="#DejaVuSans-Bold-69" x="2823.150391"/>
     <use xlink:href="#DejaVuSans-Bold-6e" x="2857.427734"/>
     <use xlink:href="#DejaVuSans-Bold-65" x="2928.619141"/>
     <use xlink:href="#DejaVuSans-Bold-73" x="2996.441406"/>
    </g>
   </g>
  </g>
 </g>
 <defs>
  <clipPath id="pd01b6a4c61">
   <rect x="126.34" y="37.968" width="446.48" height="244.072"/>
  </clipPath>
 </defs>
</svg>
